<svg width="23" height="12" viewBox="0 0 23 12" fill="none" xmlns="http://www.w3.org/2000/svg">
<path d="M17.7151 0.266797L16.0909 6.97744L14.4615 0.266797H9.68291V2.74463C9.10906 0.576077 7.08463 0.0312416 5.20898 0.000673376C2.9242 -0.0298948 0.527834 0.975261 0.439276 4.04288H3.60078C3.60078 3.11684 4.30038 2.5864 5.08855 2.59897C6.0556 2.59178 6.50193 3.01075 6.52495 3.66527C6.4913 4.23168 6.16186 4.62727 5.09563 4.62727H4.03294V6.85517H4.99822C5.5455 6.85517 6.30886 7.15725 6.33897 7.95023C6.37618 8.89425 5.72793 9.31141 4.93269 9.3186C3.51045 9.26645 3.28021 8.1552 3.28021 7.2022H3.05176e-05C0.0141997 7.84413 -0.141662 12.0302 5.00176 11.9996C7.46542 12.023 9.18522 10.9711 9.69 9.52179V11.7425H12.9277V4.50499L14.6776 11.7443H17.5061L19.2631 4.51219V11.7515H22.4919V0.266797H17.7151ZM9.69177 6.96125C9.28971 6.11433 8.72295 5.74392 8.40236 5.62703C9.07187 5.32495 9.42433 4.91498 9.69177 4.09683V6.96125Z" fill="#FF0000"/>
</svg>
