<svg width="43" height="43" viewBox="0 0 43 43" fill="none" xmlns="http://www.w3.org/2000/svg">
<g clip-path="url(#clip0_942_12694)">
<path fill-rule="evenodd" clip-rule="evenodd" d="M26.875 4.03125H22.8438V0H20.1562V4.03125H16.125V0H13.4375V4.03125H10.75C8.96953 4.03125 7.25629 4.73941 5.99988 5.99917C4.73675 7.25894 4.03125 8.96819 4.03125 10.75V13.4375H0V16.125H4.03125V20.1562H0V22.8438H4.03125V26.875H0V29.5625H4.03125V32.25C4.03125 34.0318 4.73675 35.7411 5.99988 37.0008C7.25629 38.2606 8.96953 38.9688 10.75 38.9688H13.4375V43H16.125V38.9688H20.1562V43H22.8438V38.9688H26.875V43H29.5625V38.9688H32.25C34.0305 38.9688 35.7437 38.2606 37.0001 37.0008C38.2632 35.7411 38.9688 34.0318 38.9688 32.25V29.5625H43V26.875H38.9688V22.8438H43V20.1562H38.9688V16.125H43V13.4375H38.9688V10.75C38.9688 8.96819 38.2632 7.25894 37.0001 5.99917C35.7437 4.73941 34.0305 4.03125 32.25 4.03125H29.5625V0H26.875V4.03125ZM36.2812 10.75V32.25C36.2812 33.319 35.858 34.3442 35.0987 35.1008C34.3462 35.8566 33.3183 36.2812 32.25 36.2812H10.75C9.68172 36.2812 8.65376 35.8566 7.90126 35.1008C7.14204 34.3442 6.71875 33.319 6.71875 32.25V10.75C6.71875 9.68105 7.14204 8.65577 7.90126 7.89923C8.65376 7.14337 9.68172 6.71875 10.75 6.71875H32.25C33.3183 6.71875 34.3462 7.14337 35.0987 7.89923C35.858 8.65577 36.2812 9.68105 36.2812 10.75ZM26.875 13.4375V29.5625H29.5625V13.4375H26.875ZM13.4375 18.1406V29.5625H16.125V24.8594H20.1562V29.5625H22.8438V18.1406C22.8438 15.5432 20.7408 13.4375 18.1406 13.4375C15.5405 13.4375 13.4375 15.5432 13.4375 18.1406ZM20.1562 22.1719V18.1406C20.1562 17.0273 19.2559 16.125 18.1406 16.125C17.0253 16.125 16.125 17.0273 16.125 18.1406V22.1719H20.1562Z" fill="url(#paint0_linear_942_12694)"/>
</g>
<defs>
<linearGradient id="paint0_linear_942_12694" x1="21.5" y1="0" x2="21.5" y2="43" gradientUnits="userSpaceOnUse">
<stop stop-color="#4CB4E6"/>
<stop offset="1" stop-color="#0582BE"/>
</linearGradient>
<clipPath id="clip0_942_12694">
<rect width="43" height="43" fill="white"/>
</clipPath>
</defs>
</svg>
