<svg width="23" height="23" viewBox="0 0 23 23" fill="none" xmlns="http://www.w3.org/2000/svg">
<mask id="path-1-outside-1_1269_13236" maskUnits="userSpaceOnUse" x="-0.75" y="-0.75" width="24" height="24" fill="black">
<rect fill="white" x="-0.75" y="-0.75" width="24" height="24"/>
<path d="M21.7191 13.2296L20.7093 12.8262C20.5712 12.3337 20.3743 11.8596 20.1227 11.4143L20.5491 10.4151C20.6089 10.2808 20.6296 10.1323 20.6089 9.98668C20.5881 9.84108 20.5267 9.70428 20.4318 9.59199C20.1501 9.25673 19.84 8.94649 19.5049 8.66472C19.3928 8.56965 19.2561 8.50814 19.1107 8.48725C18.9652 8.46637 18.8168 8.48696 18.6825 8.54666L17.683 8.97344C17.2375 8.7222 16.7636 8.52524 16.2713 8.3868L15.868 7.37776C15.8192 7.26172 15.7439 7.15874 15.648 7.07711V3.18324C15.648 1.27663 11.6812 0.25 7.94828 0.25C4.21537 0.25 0.25 1.27663 0.25 3.18324V16.3828C0.25 18.2894 4.21683 19.316 7.94974 19.316C8.1514 19.316 8.3461 19.3091 8.54262 19.3039C8.5724 19.378 8.61373 19.447 8.66509 19.5082C8.94691 19.8432 9.25702 20.1535 9.59199 20.4354C9.70413 20.5304 9.84076 20.5918 9.98622 20.6127C10.1317 20.6336 10.2801 20.6131 10.4144 20.5535L11.4139 20.1267C11.8593 20.3779 12.3332 20.5749 12.8255 20.7134L13.2288 21.7224C13.283 21.8576 13.3731 21.9754 13.4895 22.063C13.6058 22.1507 13.7439 22.2048 13.8888 22.2196C14.1172 22.2401 14.346 22.25 14.5686 22.25C14.7911 22.25 15.0086 22.2401 15.211 22.2196C15.3559 22.2047 15.494 22.1504 15.6104 22.0626C15.7267 21.9748 15.8168 21.8569 15.8709 21.7217L16.2743 20.7134C16.7666 20.5749 17.2405 20.3779 17.6859 20.1267L18.6847 20.5531C18.8191 20.6127 18.9676 20.6332 19.1132 20.6123C19.2587 20.5914 19.3955 20.53 19.5078 20.4351C19.8428 20.1533 20.153 19.8432 20.4347 19.5082C20.5296 19.3961 20.591 19.2595 20.6118 19.1141C20.6326 18.9687 20.612 18.8204 20.5524 18.6861L20.1256 17.6859C20.3763 17.24 20.5722 16.7656 20.7093 16.2728L21.7194 15.8695C21.8538 15.8154 21.9709 15.7257 22.0582 15.6101C22.1455 15.4944 22.1996 15.3572 22.2148 15.2132C22.2586 14.7723 22.2586 14.3282 22.2148 13.8873C22.1997 13.743 22.1456 13.6055 22.0582 13.4897C21.9709 13.3738 21.8537 13.2839 21.7191 13.2296ZM7.94974 0.983309C12.0563 0.983309 14.9162 2.14267 14.9162 3.18324C14.9162 4.2238 12.0563 5.38316 7.94974 5.38316C3.84321 5.38316 0.983309 4.2238 0.983309 3.18324C0.983309 2.14267 3.84321 0.983309 7.94974 0.983309ZM0.983309 4.48889C2.29996 5.55329 5.1881 6.11647 7.94974 6.11647C10.7114 6.11647 13.5995 5.55329 14.9162 4.48889V6.86701C14.5741 6.84608 14.231 6.85049 13.8895 6.88021C13.7446 6.89513 13.6065 6.9494 13.4901 7.03717C13.3738 7.12493 13.2837 7.24284 13.2296 7.37813L12.8262 8.38643C12.334 8.52488 11.86 8.72183 11.4146 8.97308L10.4159 8.54666C10.2814 8.48665 10.1328 8.46589 9.98706 8.48678C9.84134 8.50767 9.7045 8.56936 9.59235 8.66472C9.25759 8.94664 8.94761 9.25674 8.66582 9.59162C8.62022 9.64524 8.58233 9.70498 8.55326 9.76908C8.35306 9.77495 8.15324 9.78302 7.94974 9.78302C3.84321 9.78302 0.983309 8.62365 0.983309 7.58309V4.48889ZM0.983309 8.88875C2.29996 9.95314 5.1881 10.5163 7.94974 10.5163C8.16387 10.5163 8.37433 10.5079 8.58479 10.5009L8.97418 11.4132C8.72327 11.859 8.52703 12.3334 8.38973 12.8262L7.3796 13.2296C7.24523 13.2837 7.12813 13.3734 7.04086 13.489C6.95359 13.6046 6.89945 13.7418 6.88424 13.8859C6.87545 13.9739 6.87618 14.0626 6.87105 14.151C3.33503 13.9629 0.983309 12.9029 0.983309 11.9829V8.88875ZM8.59689 18.5684C8.38313 18.5758 8.16974 18.5827 7.94974 18.5827C3.84321 18.5827 0.983309 17.4234 0.983309 16.3828V13.264C1.94101 14.0666 3.86485 14.7365 6.86628 14.8832C6.87178 14.9932 6.87178 15.1032 6.88278 15.2132C6.89751 15.3581 6.95163 15.4962 7.03928 15.6125C7.12692 15.7289 7.24474 15.819 7.37996 15.8731L8.38826 16.2765C8.52635 16.769 8.72332 17.2431 8.97491 17.6885L8.59689 18.5684ZM21.4863 15.1439C21.4837 15.1539 21.4788 15.1632 21.472 15.1709C21.4652 15.1787 21.4566 15.1848 21.447 15.1886L20.2671 15.6598C20.213 15.6814 20.1649 15.7155 20.1266 15.7595C20.0883 15.8034 20.0611 15.8558 20.0471 15.9124C19.9111 16.4609 19.6933 16.9858 19.4011 17.4696C19.3711 17.5193 19.3534 17.5755 19.3494 17.6334C19.3454 17.6914 19.3552 17.7494 19.378 17.8028L19.8774 18.9736C19.8825 18.9831 19.8849 18.994 19.8841 19.0048C19.8833 19.0157 19.8795 19.0261 19.873 19.0348C19.6166 19.3396 19.3345 19.6218 19.0297 19.8781C19.0209 19.8832 19.0109 19.8859 19.0007 19.8859C18.9905 19.8859 18.9805 19.8832 18.9717 19.8781L17.8028 19.3791C17.7495 19.3563 17.6915 19.3466 17.6336 19.3506C17.5757 19.3546 17.5196 19.3723 17.4699 19.4022C16.9865 19.6947 16.4618 19.9129 15.9135 20.0493C15.8569 20.0633 15.8045 20.0905 15.7606 20.1288C15.7166 20.1671 15.6825 20.2152 15.6609 20.2693L15.1901 21.4481C15.1863 21.4587 15.1798 21.468 15.1712 21.4752C15.1627 21.4824 15.1523 21.4873 15.1413 21.4892C14.7463 21.5255 14.3487 21.5255 13.9537 21.4892C13.9436 21.4867 13.9342 21.4818 13.9265 21.4748C13.9188 21.4678 13.9129 21.459 13.9093 21.4492L13.4382 20.2693C13.4166 20.2152 13.3824 20.1671 13.3385 20.1288C13.2945 20.0905 13.2421 20.0633 13.1856 20.0493C12.637 19.9133 12.1121 19.6955 11.6284 19.4033C11.5787 19.3734 11.5226 19.3557 11.4647 19.3517C11.4068 19.3477 11.3488 19.3574 11.2955 19.3802L10.1258 19.8796C10.1161 19.8849 10.105 19.8872 10.094 19.8862C10.083 19.8852 10.0725 19.881 10.0639 19.8741C9.75967 19.6177 9.47814 19.3355 9.2224 19.0308C9.21735 19.022 9.21469 19.0121 9.21469 19.002C9.21469 18.9919 9.21735 18.982 9.2224 18.9732L9.72142 17.8036C9.74424 17.7502 9.75405 17.6921 9.75003 17.6342C9.74602 17.5762 9.72829 17.52 9.69832 17.4703C9.40613 16.9865 9.18835 16.4616 9.05227 15.9131C9.03831 15.8566 9.01107 15.8041 8.97281 15.7602C8.93456 15.7163 8.88638 15.6821 8.83228 15.6605L7.65422 15.1901C7.64424 15.1863 7.63531 15.1802 7.62816 15.1723C7.62102 15.1644 7.61587 15.1549 7.61315 15.1446V15.1406C7.57374 14.7457 7.57374 14.3479 7.61315 13.953C7.61571 13.943 7.62059 13.9337 7.62741 13.9259C7.63423 13.9181 7.64279 13.9121 7.65239 13.9082L8.83228 13.4371C8.88638 13.4155 8.93456 13.3813 8.97281 13.3374C9.01107 13.2934 9.03831 13.241 9.05227 13.1845C9.18835 12.636 9.40613 12.111 9.69832 11.6273C9.72829 11.5775 9.74602 11.5214 9.75003 11.4634C9.75405 11.4055 9.74424 11.3474 9.72142 11.294L9.22167 10.124C9.21651 10.1144 9.21418 10.1036 9.21496 10.0927C9.21574 10.0819 9.21959 10.0715 9.22607 10.0628C9.4826 9.75814 9.76474 9.47601 10.0694 9.21947C10.0782 9.21445 10.0882 9.21182 10.0983 9.21182C10.1085 9.21182 10.1185 9.21445 10.1273 9.21947L11.2962 9.71848C11.3495 9.74148 11.4075 9.75139 11.4655 9.74737C11.5234 9.74335 11.5795 9.72553 11.6291 9.69538C12.1126 9.40335 12.6373 9.18569 13.1856 9.04971C13.2421 9.03574 13.2945 9.0085 13.3385 8.97025C13.3824 8.93199 13.4166 8.88381 13.4382 8.82971L13.909 7.65092C13.9128 7.64038 13.9193 7.63103 13.9278 7.62382C13.9364 7.6166 13.9467 7.61179 13.9577 7.60985C14.3528 7.57316 14.7503 7.57316 15.1453 7.60985C15.1555 7.61233 15.1648 7.61728 15.1725 7.62425C15.1803 7.63123 15.1862 7.64001 15.1897 7.64982L15.6609 8.82971C15.6825 8.88381 15.7166 8.93199 15.7606 8.97025C15.8045 9.0085 15.8569 9.03574 15.9135 9.04971C16.462 9.18573 16.9869 9.40352 17.4707 9.69575C17.5203 9.72589 17.5764 9.74372 17.6343 9.74774C17.6922 9.75176 17.7503 9.74185 17.8036 9.71885L18.9732 9.21947C18.9829 9.21422 18.994 9.21194 19.005 9.21291C19.016 9.21389 19.0265 9.21808 19.0352 9.22497C19.3401 9.48119 19.6223 9.76335 19.8785 10.0683C19.8835 10.077 19.8862 10.087 19.8862 10.0971C19.8862 10.1072 19.8835 10.1171 19.8785 10.1258L19.3795 11.2955C19.3566 11.3489 19.3468 11.4069 19.3508 11.4649C19.3549 11.5228 19.3726 11.579 19.4026 11.6288C19.6947 12.1125 19.9125 12.6374 20.0486 13.1859C20.0626 13.2425 20.0898 13.2949 20.1281 13.3388C20.1663 13.3828 20.2145 13.417 20.2686 13.4386L21.4467 13.909C21.4572 13.913 21.4665 13.9197 21.4738 13.9284C21.481 13.937 21.486 13.9474 21.4881 13.9585C21.5268 14.3532 21.5262 14.7508 21.4863 15.1453V15.1439Z"/>
</mask>
<path d="M21.7191 13.2296L20.7093 12.8262C20.5712 12.3337 20.3743 11.8596 20.1227 11.4143L20.5491 10.4151C20.6089 10.2808 20.6296 10.1323 20.6089 9.98668C20.5881 9.84108 20.5267 9.70428 20.4318 9.59199C20.1501 9.25673 19.84 8.94649 19.5049 8.66472C19.3928 8.56965 19.2561 8.50814 19.1107 8.48725C18.9652 8.46637 18.8168 8.48696 18.6825 8.54666L17.683 8.97344C17.2375 8.7222 16.7636 8.52524 16.2713 8.3868L15.868 7.37776C15.8192 7.26172 15.7439 7.15874 15.648 7.07711V3.18324C15.648 1.27663 11.6812 0.25 7.94828 0.25C4.21537 0.25 0.25 1.27663 0.25 3.18324V16.3828C0.25 18.2894 4.21683 19.316 7.94974 19.316C8.1514 19.316 8.3461 19.3091 8.54262 19.3039C8.5724 19.378 8.61373 19.447 8.66509 19.5082C8.94691 19.8432 9.25702 20.1535 9.59199 20.4354C9.70413 20.5304 9.84076 20.5918 9.98622 20.6127C10.1317 20.6336 10.2801 20.6131 10.4144 20.5535L11.4139 20.1267C11.8593 20.3779 12.3332 20.5749 12.8255 20.7134L13.2288 21.7224C13.283 21.8576 13.3731 21.9754 13.4895 22.063C13.6058 22.1507 13.7439 22.2048 13.8888 22.2196C14.1172 22.2401 14.346 22.25 14.5686 22.25C14.7911 22.25 15.0086 22.2401 15.211 22.2196C15.3559 22.2047 15.494 22.1504 15.6104 22.0626C15.7267 21.9748 15.8168 21.8569 15.8709 21.7217L16.2743 20.7134C16.7666 20.5749 17.2405 20.3779 17.6859 20.1267L18.6847 20.5531C18.8191 20.6127 18.9676 20.6332 19.1132 20.6123C19.2587 20.5914 19.3955 20.53 19.5078 20.4351C19.8428 20.1533 20.153 19.8432 20.4347 19.5082C20.5296 19.3961 20.591 19.2595 20.6118 19.1141C20.6326 18.9687 20.612 18.8204 20.5524 18.6861L20.1256 17.6859C20.3763 17.24 20.5722 16.7656 20.7093 16.2728L21.7194 15.8695C21.8538 15.8154 21.9709 15.7257 22.0582 15.6101C22.1455 15.4944 22.1996 15.3572 22.2148 15.2132C22.2586 14.7723 22.2586 14.3282 22.2148 13.8873C22.1997 13.743 22.1456 13.6055 22.0582 13.4897C21.9709 13.3738 21.8537 13.2839 21.7191 13.2296ZM7.94974 0.983309C12.0563 0.983309 14.9162 2.14267 14.9162 3.18324C14.9162 4.2238 12.0563 5.38316 7.94974 5.38316C3.84321 5.38316 0.983309 4.2238 0.983309 3.18324C0.983309 2.14267 3.84321 0.983309 7.94974 0.983309ZM0.983309 4.48889C2.29996 5.55329 5.1881 6.11647 7.94974 6.11647C10.7114 6.11647 13.5995 5.55329 14.9162 4.48889V6.86701C14.5741 6.84608 14.231 6.85049 13.8895 6.88021C13.7446 6.89513 13.6065 6.9494 13.4901 7.03717C13.3738 7.12493 13.2837 7.24284 13.2296 7.37813L12.8262 8.38643C12.334 8.52488 11.86 8.72183 11.4146 8.97308L10.4159 8.54666C10.2814 8.48665 10.1328 8.46589 9.98706 8.48678C9.84134 8.50767 9.7045 8.56936 9.59235 8.66472C9.25759 8.94664 8.94761 9.25674 8.66582 9.59162C8.62022 9.64524 8.58233 9.70498 8.55326 9.76908C8.35306 9.77495 8.15324 9.78302 7.94974 9.78302C3.84321 9.78302 0.983309 8.62365 0.983309 7.58309V4.48889ZM0.983309 8.88875C2.29996 9.95314 5.1881 10.5163 7.94974 10.5163C8.16387 10.5163 8.37433 10.5079 8.58479 10.5009L8.97418 11.4132C8.72327 11.859 8.52703 12.3334 8.38973 12.8262L7.3796 13.2296C7.24523 13.2837 7.12813 13.3734 7.04086 13.489C6.95359 13.6046 6.89945 13.7418 6.88424 13.8859C6.87545 13.9739 6.87618 14.0626 6.87105 14.151C3.33503 13.9629 0.983309 12.9029 0.983309 11.9829V8.88875ZM8.59689 18.5684C8.38313 18.5758 8.16974 18.5827 7.94974 18.5827C3.84321 18.5827 0.983309 17.4234 0.983309 16.3828V13.264C1.94101 14.0666 3.86485 14.7365 6.86628 14.8832C6.87178 14.9932 6.87178 15.1032 6.88278 15.2132C6.89751 15.3581 6.95163 15.4962 7.03928 15.6125C7.12692 15.7289 7.24474 15.819 7.37996 15.8731L8.38826 16.2765C8.52635 16.769 8.72332 17.2431 8.97491 17.6885L8.59689 18.5684ZM21.4863 15.1439C21.4837 15.1539 21.4788 15.1632 21.472 15.1709C21.4652 15.1787 21.4566 15.1848 21.447 15.1886L20.2671 15.6598C20.213 15.6814 20.1649 15.7155 20.1266 15.7595C20.0883 15.8034 20.0611 15.8558 20.0471 15.9124C19.9111 16.4609 19.6933 16.9858 19.4011 17.4696C19.3711 17.5193 19.3534 17.5755 19.3494 17.6334C19.3454 17.6914 19.3552 17.7494 19.378 17.8028L19.8774 18.9736C19.8825 18.9831 19.8849 18.994 19.8841 19.0048C19.8833 19.0157 19.8795 19.0261 19.873 19.0348C19.6166 19.3396 19.3345 19.6218 19.0297 19.8781C19.0209 19.8832 19.0109 19.8859 19.0007 19.8859C18.9905 19.8859 18.9805 19.8832 18.9717 19.8781L17.8028 19.3791C17.7495 19.3563 17.6915 19.3466 17.6336 19.3506C17.5757 19.3546 17.5196 19.3723 17.4699 19.4022C16.9865 19.6947 16.4618 19.9129 15.9135 20.0493C15.8569 20.0633 15.8045 20.0905 15.7606 20.1288C15.7166 20.1671 15.6825 20.2152 15.6609 20.2693L15.1901 21.4481C15.1863 21.4587 15.1798 21.468 15.1712 21.4752C15.1627 21.4824 15.1523 21.4873 15.1413 21.4892C14.7463 21.5255 14.3487 21.5255 13.9537 21.4892C13.9436 21.4867 13.9342 21.4818 13.9265 21.4748C13.9188 21.4678 13.9129 21.459 13.9093 21.4492L13.4382 20.2693C13.4166 20.2152 13.3824 20.1671 13.3385 20.1288C13.2945 20.0905 13.2421 20.0633 13.1856 20.0493C12.637 19.9133 12.1121 19.6955 11.6284 19.4033C11.5787 19.3734 11.5226 19.3557 11.4647 19.3517C11.4068 19.3477 11.3488 19.3574 11.2955 19.3802L10.1258 19.8796C10.1161 19.8849 10.105 19.8872 10.094 19.8862C10.083 19.8852 10.0725 19.881 10.0639 19.8741C9.75967 19.6177 9.47814 19.3355 9.2224 19.0308C9.21735 19.022 9.21469 19.0121 9.21469 19.002C9.21469 18.9919 9.21735 18.982 9.2224 18.9732L9.72142 17.8036C9.74424 17.7502 9.75405 17.6921 9.75003 17.6342C9.74602 17.5762 9.72829 17.52 9.69832 17.4703C9.40613 16.9865 9.18835 16.4616 9.05227 15.9131C9.03831 15.8566 9.01107 15.8041 8.97281 15.7602C8.93456 15.7163 8.88638 15.6821 8.83228 15.6605L7.65422 15.1901C7.64424 15.1863 7.63531 15.1802 7.62816 15.1723C7.62102 15.1644 7.61587 15.1549 7.61315 15.1446V15.1406C7.57374 14.7457 7.57374 14.3479 7.61315 13.953C7.61571 13.943 7.62059 13.9337 7.62741 13.9259C7.63423 13.9181 7.64279 13.9121 7.65239 13.9082L8.83228 13.4371C8.88638 13.4155 8.93456 13.3813 8.97281 13.3374C9.01107 13.2934 9.03831 13.241 9.05227 13.1845C9.18835 12.636 9.40613 12.111 9.69832 11.6273C9.72829 11.5775 9.74602 11.5214 9.75003 11.4634C9.75405 11.4055 9.74424 11.3474 9.72142 11.294L9.22167 10.124C9.21651 10.1144 9.21418 10.1036 9.21496 10.0927C9.21574 10.0819 9.21959 10.0715 9.22607 10.0628C9.4826 9.75814 9.76474 9.47601 10.0694 9.21947C10.0782 9.21445 10.0882 9.21182 10.0983 9.21182C10.1085 9.21182 10.1185 9.21445 10.1273 9.21947L11.2962 9.71848C11.3495 9.74148 11.4075 9.75139 11.4655 9.74737C11.5234 9.74335 11.5795 9.72553 11.6291 9.69538C12.1126 9.40335 12.6373 9.18569 13.1856 9.04971C13.2421 9.03574 13.2945 9.0085 13.3385 8.97025C13.3824 8.93199 13.4166 8.88381 13.4382 8.82971L13.909 7.65092C13.9128 7.64038 13.9193 7.63103 13.9278 7.62382C13.9364 7.6166 13.9467 7.61179 13.9577 7.60985C14.3528 7.57316 14.7503 7.57316 15.1453 7.60985C15.1555 7.61233 15.1648 7.61728 15.1725 7.62425C15.1803 7.63123 15.1862 7.64001 15.1897 7.64982L15.6609 8.82971C15.6825 8.88381 15.7166 8.93199 15.7606 8.97025C15.8045 9.0085 15.8569 9.03574 15.9135 9.04971C16.462 9.18573 16.9869 9.40352 17.4707 9.69575C17.5203 9.72589 17.5764 9.74372 17.6343 9.74774C17.6922 9.75176 17.7503 9.74185 17.8036 9.71885L18.9732 9.21947C18.9829 9.21422 18.994 9.21194 19.005 9.21291C19.016 9.21389 19.0265 9.21808 19.0352 9.22497C19.3401 9.48119 19.6223 9.76335 19.8785 10.0683C19.8835 10.077 19.8862 10.087 19.8862 10.0971C19.8862 10.1072 19.8835 10.1171 19.8785 10.1258L19.3795 11.2955C19.3566 11.3489 19.3468 11.4069 19.3508 11.4649C19.3549 11.5228 19.3726 11.579 19.4026 11.6288C19.6947 12.1125 19.9125 12.6374 20.0486 13.1859C20.0626 13.2425 20.0898 13.2949 20.1281 13.3388C20.1663 13.3828 20.2145 13.417 20.2686 13.4386L21.4467 13.909C21.4572 13.913 21.4665 13.9197 21.4738 13.9284C21.481 13.937 21.486 13.9474 21.4881 13.9585C21.5268 14.3532 21.5262 14.7508 21.4863 15.1453V15.1439Z" fill="#CDCDCD"/>
<path d="M21.7191 13.2296L20.7093 12.8262C20.5712 12.3337 20.3743 11.8596 20.1227 11.4143L20.5491 10.4151C20.6089 10.2808 20.6296 10.1323 20.6089 9.98668C20.5881 9.84108 20.5267 9.70428 20.4318 9.59199C20.1501 9.25673 19.84 8.94649 19.5049 8.66472C19.3928 8.56965 19.2561 8.50814 19.1107 8.48725C18.9652 8.46637 18.8168 8.48696 18.6825 8.54666L17.683 8.97344C17.2375 8.7222 16.7636 8.52524 16.2713 8.3868L15.868 7.37776C15.8192 7.26172 15.7439 7.15874 15.648 7.07711V3.18324C15.648 1.27663 11.6812 0.25 7.94828 0.25C4.21537 0.25 0.25 1.27663 0.25 3.18324V16.3828C0.25 18.2894 4.21683 19.316 7.94974 19.316C8.1514 19.316 8.3461 19.3091 8.54262 19.3039C8.5724 19.378 8.61373 19.447 8.66509 19.5082C8.94691 19.8432 9.25702 20.1535 9.59199 20.4354C9.70413 20.5304 9.84076 20.5918 9.98622 20.6127C10.1317 20.6336 10.2801 20.6131 10.4144 20.5535L11.4139 20.1267C11.8593 20.3779 12.3332 20.5749 12.8255 20.7134L13.2288 21.7224C13.283 21.8576 13.3731 21.9754 13.4895 22.063C13.6058 22.1507 13.7439 22.2048 13.8888 22.2196C14.1172 22.2401 14.346 22.25 14.5686 22.25C14.7911 22.25 15.0086 22.2401 15.211 22.2196C15.3559 22.2047 15.494 22.1504 15.6104 22.0626C15.7267 21.9748 15.8168 21.8569 15.8709 21.7217L16.2743 20.7134C16.7666 20.5749 17.2405 20.3779 17.6859 20.1267L18.6847 20.5531C18.8191 20.6127 18.9676 20.6332 19.1132 20.6123C19.2587 20.5914 19.3955 20.53 19.5078 20.4351C19.8428 20.1533 20.153 19.8432 20.4347 19.5082C20.5296 19.3961 20.591 19.2595 20.6118 19.1141C20.6326 18.9687 20.612 18.8204 20.5524 18.6861L20.1256 17.6859C20.3763 17.24 20.5722 16.7656 20.7093 16.2728L21.7194 15.8695C21.8538 15.8154 21.9709 15.7257 22.0582 15.6101C22.1455 15.4944 22.1996 15.3572 22.2148 15.2132C22.2586 14.7723 22.2586 14.3282 22.2148 13.8873C22.1997 13.743 22.1456 13.6055 22.0582 13.4897C21.9709 13.3738 21.8537 13.2839 21.7191 13.2296ZM7.94974 0.983309C12.0563 0.983309 14.9162 2.14267 14.9162 3.18324C14.9162 4.2238 12.0563 5.38316 7.94974 5.38316C3.84321 5.38316 0.983309 4.2238 0.983309 3.18324C0.983309 2.14267 3.84321 0.983309 7.94974 0.983309ZM0.983309 4.48889C2.29996 5.55329 5.1881 6.11647 7.94974 6.11647C10.7114 6.11647 13.5995 5.55329 14.9162 4.48889V6.86701C14.5741 6.84608 14.231 6.85049 13.8895 6.88021C13.7446 6.89513 13.6065 6.9494 13.4901 7.03717C13.3738 7.12493 13.2837 7.24284 13.2296 7.37813L12.8262 8.38643C12.334 8.52488 11.86 8.72183 11.4146 8.97308L10.4159 8.54666C10.2814 8.48665 10.1328 8.46589 9.98706 8.48678C9.84134 8.50767 9.7045 8.56936 9.59235 8.66472C9.25759 8.94664 8.94761 9.25674 8.66582 9.59162C8.62022 9.64524 8.58233 9.70498 8.55326 9.76908C8.35306 9.77495 8.15324 9.78302 7.94974 9.78302C3.84321 9.78302 0.983309 8.62365 0.983309 7.58309V4.48889ZM0.983309 8.88875C2.29996 9.95314 5.1881 10.5163 7.94974 10.5163C8.16387 10.5163 8.37433 10.5079 8.58479 10.5009L8.97418 11.4132C8.72327 11.859 8.52703 12.3334 8.38973 12.8262L7.3796 13.2296C7.24523 13.2837 7.12813 13.3734 7.04086 13.489C6.95359 13.6046 6.89945 13.7418 6.88424 13.8859C6.87545 13.9739 6.87618 14.0626 6.87105 14.151C3.33503 13.9629 0.983309 12.9029 0.983309 11.9829V8.88875ZM8.59689 18.5684C8.38313 18.5758 8.16974 18.5827 7.94974 18.5827C3.84321 18.5827 0.983309 17.4234 0.983309 16.3828V13.264C1.94101 14.0666 3.86485 14.7365 6.86628 14.8832C6.87178 14.9932 6.87178 15.1032 6.88278 15.2132C6.89751 15.3581 6.95163 15.4962 7.03928 15.6125C7.12692 15.7289 7.24474 15.819 7.37996 15.8731L8.38826 16.2765C8.52635 16.769 8.72332 17.2431 8.97491 17.6885L8.59689 18.5684ZM21.4863 15.1439C21.4837 15.1539 21.4788 15.1632 21.472 15.1709C21.4652 15.1787 21.4566 15.1848 21.447 15.1886L20.2671 15.6598C20.213 15.6814 20.1649 15.7155 20.1266 15.7595C20.0883 15.8034 20.0611 15.8558 20.0471 15.9124C19.9111 16.4609 19.6933 16.9858 19.4011 17.4696C19.3711 17.5193 19.3534 17.5755 19.3494 17.6334C19.3454 17.6914 19.3552 17.7494 19.378 17.8028L19.8774 18.9736C19.8825 18.9831 19.8849 18.994 19.8841 19.0048C19.8833 19.0157 19.8795 19.0261 19.873 19.0348C19.6166 19.3396 19.3345 19.6218 19.0297 19.8781C19.0209 19.8832 19.0109 19.8859 19.0007 19.8859C18.9905 19.8859 18.9805 19.8832 18.9717 19.8781L17.8028 19.3791C17.7495 19.3563 17.6915 19.3466 17.6336 19.3506C17.5757 19.3546 17.5196 19.3723 17.4699 19.4022C16.9865 19.6947 16.4618 19.9129 15.9135 20.0493C15.8569 20.0633 15.8045 20.0905 15.7606 20.1288C15.7166 20.1671 15.6825 20.2152 15.6609 20.2693L15.1901 21.4481C15.1863 21.4587 15.1798 21.468 15.1712 21.4752C15.1627 21.4824 15.1523 21.4873 15.1413 21.4892C14.7463 21.5255 14.3487 21.5255 13.9537 21.4892C13.9436 21.4867 13.9342 21.4818 13.9265 21.4748C13.9188 21.4678 13.9129 21.459 13.9093 21.4492L13.4382 20.2693C13.4166 20.2152 13.3824 20.1671 13.3385 20.1288C13.2945 20.0905 13.2421 20.0633 13.1856 20.0493C12.637 19.9133 12.1121 19.6955 11.6284 19.4033C11.5787 19.3734 11.5226 19.3557 11.4647 19.3517C11.4068 19.3477 11.3488 19.3574 11.2955 19.3802L10.1258 19.8796C10.1161 19.8849 10.105 19.8872 10.094 19.8862C10.083 19.8852 10.0725 19.881 10.0639 19.8741C9.75967 19.6177 9.47814 19.3355 9.2224 19.0308C9.21735 19.022 9.21469 19.0121 9.21469 19.002C9.21469 18.9919 9.21735 18.982 9.2224 18.9732L9.72142 17.8036C9.74424 17.7502 9.75405 17.6921 9.75003 17.6342C9.74602 17.5762 9.72829 17.52 9.69832 17.4703C9.40613 16.9865 9.18835 16.4616 9.05227 15.9131C9.03831 15.8566 9.01107 15.8041 8.97281 15.7602C8.93456 15.7163 8.88638 15.6821 8.83228 15.6605L7.65422 15.1901C7.64424 15.1863 7.63531 15.1802 7.62816 15.1723C7.62102 15.1644 7.61587 15.1549 7.61315 15.1446V15.1406C7.57374 14.7457 7.57374 14.3479 7.61315 13.953C7.61571 13.943 7.62059 13.9337 7.62741 13.9259C7.63423 13.9181 7.64279 13.9121 7.65239 13.9082L8.83228 13.4371C8.88638 13.4155 8.93456 13.3813 8.97281 13.3374C9.01107 13.2934 9.03831 13.241 9.05227 13.1845C9.18835 12.636 9.40613 12.111 9.69832 11.6273C9.72829 11.5775 9.74602 11.5214 9.75003 11.4634C9.75405 11.4055 9.74424 11.3474 9.72142 11.294L9.22167 10.124C9.21651 10.1144 9.21418 10.1036 9.21496 10.0927C9.21574 10.0819 9.21959 10.0715 9.22607 10.0628C9.4826 9.75814 9.76474 9.47601 10.0694 9.21947C10.0782 9.21445 10.0882 9.21182 10.0983 9.21182C10.1085 9.21182 10.1185 9.21445 10.1273 9.21947L11.2962 9.71848C11.3495 9.74148 11.4075 9.75139 11.4655 9.74737C11.5234 9.74335 11.5795 9.72553 11.6291 9.69538C12.1126 9.40335 12.6373 9.18569 13.1856 9.04971C13.2421 9.03574 13.2945 9.0085 13.3385 8.97025C13.3824 8.93199 13.4166 8.88381 13.4382 8.82971L13.909 7.65092C13.9128 7.64038 13.9193 7.63103 13.9278 7.62382C13.9364 7.6166 13.9467 7.61179 13.9577 7.60985C14.3528 7.57316 14.7503 7.57316 15.1453 7.60985C15.1555 7.61233 15.1648 7.61728 15.1725 7.62425C15.1803 7.63123 15.1862 7.64001 15.1897 7.64982L15.6609 8.82971C15.6825 8.88381 15.7166 8.93199 15.7606 8.97025C15.8045 9.0085 15.8569 9.03574 15.9135 9.04971C16.462 9.18573 16.9869 9.40352 17.4707 9.69575C17.5203 9.72589 17.5764 9.74372 17.6343 9.74774C17.6922 9.75176 17.7503 9.74185 17.8036 9.71885L18.9732 9.21947C18.9829 9.21422 18.994 9.21194 19.005 9.21291C19.016 9.21389 19.0265 9.21808 19.0352 9.22497C19.3401 9.48119 19.6223 9.76335 19.8785 10.0683C19.8835 10.077 19.8862 10.087 19.8862 10.0971C19.8862 10.1072 19.8835 10.1171 19.8785 10.1258L19.3795 11.2955C19.3566 11.3489 19.3468 11.4069 19.3508 11.4649C19.3549 11.5228 19.3726 11.579 19.4026 11.6288C19.6947 12.1125 19.9125 12.6374 20.0486 13.1859C20.0626 13.2425 20.0898 13.2949 20.1281 13.3388C20.1663 13.3828 20.2145 13.417 20.2686 13.4386L21.4467 13.909C21.4572 13.913 21.4665 13.9197 21.4738 13.9284C21.481 13.937 21.486 13.9474 21.4881 13.9585C21.5268 14.3532 21.5262 14.7508 21.4863 15.1453V15.1439Z" stroke="#CDCDCD" stroke-width="0.5" mask="url(#path-1-outside-1_1269_13236)"/>
</svg>
