<svg width="13" height="13" viewBox="0 0 13 13" fill="none" xmlns="http://www.w3.org/2000/svg">
<path d="M1.62508 10.2917L11.3751 10.2917C11.5187 10.2917 11.6565 10.3488 11.7581 10.4504C11.8597 10.552 11.9167 10.6898 11.9167 10.8334C11.9167 10.9771 11.8597 11.1149 11.7581 11.2164C11.6565 11.318 11.5187 11.3751 11.3751 11.3751L1.62508 11.3751C1.48142 11.3751 1.34365 11.318 1.24207 11.2164C1.14048 11.1148 1.08342 10.9771 1.08342 10.8334C1.08342 10.6898 1.14048 10.552 1.24207 10.4504C1.34365 10.3488 1.48142 10.2917 1.62508 10.2917Z" fill="#F5F5F5"/>
<path d="M6.49998 1.08325C6.64364 1.08325 6.78141 1.14032 6.883 1.2419C6.98458 1.34349 7.04165 1.48126 7.04165 1.62492L7.04165 7.36117L8.82373 5.57367C8.92573 5.47167 9.06407 5.41437 9.20831 5.41437C9.35256 5.41437 9.4909 5.47167 9.5929 5.57367C9.6949 5.67567 9.7522 5.81401 9.7522 5.95825C9.7522 6.1025 9.6949 6.24084 9.5929 6.34284L6.88456 9.05117C6.83421 9.10194 6.7743 9.14224 6.70829 9.16974C6.64229 9.19724 6.57149 9.21139 6.49998 9.21139C6.42847 9.21139 6.35768 9.19724 6.29167 9.16974C6.22566 9.14224 6.16575 9.10194 6.1154 9.05117L3.40706 6.34284C3.35656 6.29233 3.3165 6.23237 3.28916 6.16639C3.26183 6.1004 3.24776 6.02968 3.24776 5.95825C3.24776 5.88683 3.26183 5.8161 3.28916 5.75012C3.3165 5.68413 3.35656 5.62417 3.40706 5.57367C3.45757 5.52317 3.51753 5.4831 3.58351 5.45577C3.6495 5.42844 3.72022 5.41437 3.79165 5.41437C3.86307 5.41437 3.9338 5.42844 3.99978 5.45577C4.06577 5.4831 4.12573 5.52317 4.17623 5.57367L5.95831 7.36117L5.95831 1.62492C5.95831 1.48126 6.01538 1.34349 6.11696 1.2419C6.21855 1.14032 6.35632 1.08325 6.49998 1.08325Z" fill="#F5F5F5"/>
</svg>
