<svg width="16" height="16" viewBox="0 0 16 16" fill="none" xmlns="http://www.w3.org/2000/svg">
<path d="M16 8C16 12.4183 12.4183 16 8 16C3.58172 16 0 12.4183 0 8C0 3.58172 3.58172 0 8 0C12.4183 0 16 3.58172 16 8ZM12.8779 4.57665C12.5939 4.29263 12.1334 4.29263 11.8494 4.57665L6.54545 9.88057L4.15062 7.48574C3.86661 7.20172 3.40612 7.20172 3.1221 7.48574C2.83809 7.76976 2.83809 8.23024 3.1221 8.51426L6.03119 11.4234C6.31521 11.7074 6.7757 11.7074 7.05971 11.4234L12.8779 5.60517C13.1619 5.32115 13.1619 4.86067 12.8779 4.57665Z" fill="#1C9A4E"/>
</svg>
