<svg width="18" height="18" viewBox="0 0 18 18" fill="none" xmlns="http://www.w3.org/2000/svg">
<g clip-path="url(#clip0_431_8737)">
<path d="M11.116 3.02332L1.21212 12.9279C1.16229 12.9779 1.12631 13.041 1.10918 13.1088L0.0114342 17.5149C-0.0214026 17.6475 0.0175732 17.7886 0.11437 17.8854C0.187611 17.9586 0.287406 17.9992 0.389485 17.9992C0.420752 17.9992 0.452732 17.9953 0.483855 17.9875L4.88998 16.8896C4.95865 16.8724 5.02104 16.8366 5.07087 16.7868L14.9756 6.88292L11.116 3.02332Z" fill="#F5F5F5"/>
<path d="M17.4291 1.67288L16.3267 0.57042C15.5899 -0.166408 14.3057 -0.165695 13.5697 0.57042L12.2192 1.92087L16.0787 5.78033L17.4291 4.42988C17.7972 4.06197 17.9999 3.57227 17.9999 3.05145C17.9999 2.53063 17.7972 2.04094 17.4291 1.67288Z" fill="white"/>
</g>
<defs>
<clipPath id="clip0_431_8737">
<rect width="18" height="18" fill="white"/>
</clipPath>
</defs>
</svg>
