<svg width="1216" height="274" viewBox="0 0 1216 274" fill="none" xmlns="http://www.w3.org/2000/svg">
<path d="M28.4267 229.722C28.4267 231.234 27.1667 232.194 25.6667 232.194C24.1547 232.194 22.9427 231.39 22.9427 229.842C22.9427 229.47 23.0747 229.086 23.3027 228.75C23.6147 228.294 24.1307 227.898 24.7307 227.67C23.9027 227.298 23.2907 226.59 23.2907 225.726C23.2907 224.502 24.3707 223.662 25.7147 223.662C27.0347 223.662 28.0547 224.43 28.0547 225.69C28.0547 226.458 27.3947 227.214 26.6147 227.586C27.8267 228.09 28.4267 228.834 28.4267 229.722ZM26.9147 225.702C26.9147 224.982 26.4587 224.49 25.6667 224.49C24.9587 224.49 24.4307 224.994 24.4307 225.678C24.4307 226.446 25.0307 226.878 25.7147 227.214C26.2427 226.95 26.9147 226.446 26.9147 225.702ZM27.2867 229.818C27.2867 229.398 27.1427 229.098 26.8667 228.822C26.5547 228.51 26.0987 228.258 25.5947 228.054C24.7907 228.39 24.0827 228.93 24.0827 229.794C24.0827 230.79 24.8867 231.366 25.7027 231.366C26.5187 231.366 27.2867 230.838 27.2867 229.818ZM35.1323 227.91C35.1323 229.818 34.4483 232.194 32.2763 232.194C30.1043 232.194 29.4443 229.854 29.4443 227.946C29.4443 226.05 30.1643 223.662 32.3123 223.662C34.4843 223.662 35.1323 226.002 35.1323 227.91ZM33.9683 227.922C33.9683 226.494 33.6323 224.598 32.3003 224.598C30.9323 224.598 30.6083 226.518 30.6083 227.922C30.6083 229.338 30.9203 231.246 32.2883 231.246C33.6563 231.246 33.9683 229.326 33.9683 227.922Z" fill="#999999"/>
<path d="M20.0411 187.082V194.786C20.0411 194.99 19.9691 195.074 19.7771 195.074H19.2491C19.0331 195.074 18.9611 194.99 18.9611 194.786V187.994L17.2211 189.062C17.1611 189.098 17.1011 189.122 17.0531 189.122C16.9931 189.122 16.9331 189.098 16.8971 189.026L16.6571 188.63C16.6331 188.582 16.6091 188.534 16.6091 188.498C16.6091 188.426 16.6571 188.354 16.7651 188.294L18.9731 186.914C19.1171 186.818 19.2131 186.806 19.4171 186.806H19.8011C19.9691 186.806 20.0411 186.902 20.0411 187.082ZM28.5347 190.91C28.5347 192.818 27.8507 195.194 25.6787 195.194C23.5067 195.194 22.8467 192.854 22.8467 190.946C22.8467 189.05 23.5667 186.662 25.7147 186.662C27.8867 186.662 28.5347 189.002 28.5347 190.91ZM27.3707 190.922C27.3707 189.494 27.0347 187.598 25.7027 187.598C24.3347 187.598 24.0107 189.518 24.0107 190.922C24.0107 192.338 24.3227 194.246 25.6907 194.246C27.0587 194.246 27.3707 192.326 27.3707 190.922ZM35.1324 190.91C35.1324 192.818 34.4484 195.194 32.2764 195.194C30.1044 195.194 29.4444 192.854 29.4444 190.946C29.4444 189.05 30.1644 186.662 32.3124 186.662C34.4844 186.662 35.1324 189.002 35.1324 190.91ZM33.9684 190.922C33.9684 189.494 33.6324 187.598 32.3004 187.598C30.9324 187.598 30.6084 189.518 30.6084 190.922C30.6084 192.338 30.9204 194.246 32.2884 194.246C33.6564 194.246 33.9684 192.326 33.9684 190.922Z" fill="#999999"/>
<path d="M20.0411 150.082V157.786C20.0411 157.99 19.9691 158.074 19.7771 158.074H19.2491C19.0331 158.074 18.9611 157.99 18.9611 157.786V150.994L17.2211 152.062C17.1611 152.098 17.1011 152.122 17.0531 152.122C16.9931 152.122 16.9331 152.098 16.8971 152.026L16.6571 151.63C16.6331 151.582 16.6091 151.534 16.6091 151.498C16.6091 151.426 16.6571 151.354 16.7651 151.294L18.9731 149.914C19.1171 149.818 19.2131 149.806 19.4171 149.806H19.8011C19.9691 149.806 20.0411 149.902 20.0411 150.082ZM28.2707 157.39V157.81C28.2707 157.978 28.1987 158.074 27.9827 158.074H23.4587C23.2547 158.074 23.1947 158.002 23.1947 157.81V157.414C23.1947 157.246 23.2187 157.174 23.3387 157.054C23.9747 156.382 24.6947 155.722 25.3067 155.062C26.4467 153.838 27.1187 152.878 27.1187 151.966C27.1187 151.114 26.5187 150.61 25.6787 150.61C25.1027 150.61 24.5027 150.802 23.9627 151.114C23.9147 151.138 23.8787 151.15 23.8427 151.15C23.7707 151.15 23.7227 151.102 23.6747 151.006L23.4947 150.622C23.4707 150.574 23.4587 150.526 23.4587 150.49C23.4587 150.418 23.5067 150.358 23.5907 150.298C24.2387 149.89 25.0427 149.662 25.8347 149.662C27.1667 149.662 28.2707 150.43 28.2707 151.858C28.2707 153.106 27.5147 154.15 26.0387 155.686C25.5587 156.19 25.0547 156.682 24.5867 157.15H27.9827C28.1867 157.15 28.2707 157.21 28.2707 157.39ZM35.1324 153.91C35.1324 155.818 34.4484 158.194 32.2764 158.194C30.1044 158.194 29.4444 155.854 29.4444 153.946C29.4444 152.05 30.1644 149.662 32.3124 149.662C34.4844 149.662 35.1324 152.002 35.1324 153.91ZM33.9684 153.922C33.9684 152.494 33.6324 150.598 32.3004 150.598C30.9324 150.598 30.6084 152.518 30.6084 153.922C30.6084 155.338 30.9204 157.246 32.2884 157.246C33.6564 157.246 33.9684 155.326 33.9684 153.922Z" fill="#999999"/>
<path d="M20.0411 113.082V120.786C20.0411 120.99 19.9691 121.074 19.7771 121.074H19.2491C19.0331 121.074 18.9611 120.99 18.9611 120.786V113.994L17.2211 115.062C17.1611 115.098 17.1011 115.122 17.0531 115.122C16.9931 115.122 16.9331 115.098 16.8971 115.026L16.6571 114.63C16.6331 114.582 16.6091 114.534 16.6091 114.498C16.6091 114.426 16.6571 114.354 16.7651 114.294L18.9731 112.914C19.1171 112.818 19.2131 112.806 19.4171 112.806H19.8011C19.9691 112.806 20.0411 112.902 20.0411 113.082ZM25.6427 112.806H26.3267C26.4227 112.806 26.4587 112.842 26.4587 112.914C26.4587 112.962 26.4467 113.034 26.4107 113.106L24.1187 118.23H27.0707V116.31C27.0707 116.118 27.1667 116.082 27.3227 116.082H27.9107C28.0787 116.082 28.1507 116.13 28.1507 116.31V120.846C28.1507 121.014 28.0787 121.074 27.9347 121.074H27.3107C27.1547 121.074 27.0707 121.014 27.0707 120.834V119.154H23.1827C22.9667 119.154 22.9187 119.046 22.9187 118.866V118.578C22.9187 118.41 22.9427 118.314 23.0507 118.074L25.3427 113.046C25.4027 112.914 25.4747 112.806 25.6427 112.806ZM35.1324 116.91C35.1324 118.818 34.4484 121.194 32.2764 121.194C30.1044 121.194 29.4444 118.854 29.4444 116.946C29.4444 115.05 30.1644 112.662 32.3124 112.662C34.4844 112.662 35.1324 115.002 35.1324 116.91ZM33.9684 116.922C33.9684 115.494 33.6324 113.598 32.3004 113.598C30.9324 113.598 30.6084 115.518 30.6084 116.922C30.6084 118.338 30.9204 120.246 32.2884 120.246C33.6564 120.246 33.9684 118.326 33.9684 116.922Z" fill="#999999"/>
<path d="M20.0411 76.082V83.786C20.0411 83.99 19.9691 84.074 19.7771 84.074H19.2491C19.0331 84.074 18.9611 83.99 18.9611 83.786V76.994L17.2211 78.062C17.1611 78.098 17.1011 78.122 17.0531 78.122C16.9931 78.122 16.9331 78.098 16.8971 78.026L16.6571 77.63C16.6331 77.582 16.6091 77.534 16.6091 77.498C16.6091 77.426 16.6571 77.354 16.7651 77.294L18.9731 75.914C19.1171 75.818 19.2131 75.806 19.4171 75.806H19.8011C19.9691 75.806 20.0411 75.902 20.0411 76.082ZM28.3907 81.35C28.3907 82.922 27.4187 84.194 25.8227 84.194C23.7707 84.194 23.0987 82.502 23.0987 80.558C23.0987 78.986 23.5187 77.342 24.5027 76.418C24.9947 75.95 25.7147 75.662 26.5187 75.662C26.8427 75.662 27.2147 75.71 27.5867 75.806C27.7427 75.842 27.7427 75.974 27.7187 76.094L27.6347 76.49C27.5987 76.646 27.5147 76.67 27.3827 76.646C27.1067 76.586 26.7707 76.562 26.5307 76.562C26.0147 76.562 25.5587 76.742 25.2227 77.078C24.7067 77.606 24.4187 78.494 24.3107 79.574C24.8147 79.082 25.4627 78.878 26.0267 78.878C27.3587 78.878 28.3907 79.778 28.3907 81.35ZM27.2387 81.446C27.2387 80.594 26.8667 79.778 25.8827 79.778C25.4027 79.778 24.7427 80.006 24.2627 80.546C24.2627 80.642 24.2507 80.726 24.2507 80.822C24.2507 82.298 24.7187 83.294 25.8347 83.294C26.8907 83.294 27.2387 82.238 27.2387 81.446ZM35.1324 79.91C35.1324 81.818 34.4484 84.194 32.2764 84.194C30.1044 84.194 29.4444 81.854 29.4444 79.946C29.4444 78.05 30.1644 75.662 32.3124 75.662C34.4844 75.662 35.1324 78.002 35.1324 79.91ZM33.9684 79.922C33.9684 78.494 33.6324 76.598 32.3004 76.598C30.9324 76.598 30.6084 78.518 30.6084 79.922C30.6084 81.338 30.9204 83.246 32.2884 83.246C33.6564 83.246 33.9684 81.326 33.9684 79.922Z" fill="#999999"/>
<path d="M20.6496 45.3899V45.8099C20.6496 45.9779 20.5776 46.0739 20.3616 46.0739H15.8376C15.6336 46.0739 15.5736 46.0019 15.5736 45.8099V45.4139C15.5736 45.2459 15.5976 45.1739 15.7176 45.0539C16.3536 44.3819 17.0736 43.7219 17.6856 43.0619C18.8256 41.8379 19.4976 40.8779 19.4976 39.9659C19.4976 39.1139 18.8976 38.6099 18.0576 38.6099C17.4816 38.6099 16.8816 38.8019 16.3416 39.1139C16.2936 39.1379 16.2576 39.1499 16.2216 39.1499C16.1496 39.1499 16.1016 39.1019 16.0536 39.0059L15.8736 38.6219C15.8496 38.5739 15.8376 38.5259 15.8376 38.4899C15.8376 38.4179 15.8856 38.3579 15.9696 38.2979C16.6176 37.8899 17.4216 37.6619 18.2136 37.6619C19.5456 37.6619 20.6496 38.4299 20.6496 39.8579C20.6496 41.1059 19.8936 42.1499 18.4176 43.6859C17.9376 44.1899 17.4336 44.6819 16.9656 45.1499H20.3616C20.5656 45.1499 20.6496 45.2099 20.6496 45.3899ZM27.5113 41.9099C27.5113 43.8179 26.8273 46.1939 24.6553 46.1939C22.4833 46.1939 21.8233 43.8539 21.8233 41.9459C21.8233 40.0499 22.5433 37.6619 24.6913 37.6619C26.8633 37.6619 27.5113 40.0019 27.5113 41.9099ZM26.3473 41.9219C26.3473 40.4939 26.0113 38.5979 24.6793 38.5979C23.3113 38.5979 22.9873 40.5179 22.9873 41.9219C22.9873 43.3379 23.2993 45.2459 24.6673 45.2459C26.0353 45.2459 26.3473 43.3259 26.3473 41.9219ZM34.1089 41.9099C34.1089 43.8179 33.4249 46.1939 31.2529 46.1939C29.0809 46.1939 28.4209 43.8539 28.4209 41.9459C28.4209 40.0499 29.1409 37.6619 31.2889 37.6619C33.4609 37.6619 34.1089 40.0019 34.1089 41.9099ZM32.9449 41.9219C32.9449 40.4939 32.6089 38.5979 31.2769 38.5979C29.9089 38.5979 29.5849 40.5179 29.5849 41.9219C29.5849 43.3379 29.8969 45.2459 31.2649 45.2459C32.6329 45.2459 32.9449 43.3259 32.9449 41.9219Z" fill="#999999" fill-opacity="0.6"/>
<line x1="51.4102" y1="37.21" x2="51.4101" y2="232.329" stroke="#CCCCCC"/>
<path d="M134.198 256.861H141.902C142.106 256.861 142.19 256.933 142.19 257.125V257.653C142.19 257.869 142.106 257.941 141.902 257.941H135.11L136.178 259.681C136.214 259.741 136.238 259.801 136.238 259.849C136.238 259.909 136.214 259.969 136.142 260.005L135.746 260.245C135.698 260.269 135.65 260.293 135.614 260.293C135.542 260.293 135.47 260.245 135.41 260.137L134.03 257.929C133.934 257.785 133.922 257.689 133.922 257.485V257.101C133.922 256.933 134.018 256.861 134.198 256.861ZM134.042 245.327C134.09 245.327 134.138 245.339 134.198 245.375L138.926 247.799H141.974C142.13 247.799 142.19 247.859 142.19 248.003V248.711C142.19 248.855 142.13 248.915 141.962 248.915H138.95L134.162 251.483C134.114 251.507 134.078 251.519 134.042 251.519C133.97 251.519 133.922 251.459 133.922 251.339V250.667C133.922 250.463 133.97 250.343 134.126 250.271L138.014 248.303V248.291L134.162 246.395C133.97 246.299 133.922 246.239 133.922 246.023V245.519C133.922 245.387 133.97 245.327 134.042 245.327ZM136.394 243.718C136.394 243.562 136.454 243.478 136.61 243.478L137.018 243.466C136.622 243.178 136.262 242.722 136.262 242.086C136.262 242.002 136.274 241.858 136.298 241.738C136.322 241.63 136.418 241.63 136.502 241.642L137.042 241.726C137.126 241.738 137.162 241.786 137.162 241.858C137.162 241.954 137.126 242.026 137.126 242.242C137.126 242.662 137.402 243.13 137.846 243.442H141.938C142.094 243.442 142.19 243.514 142.19 243.67V244.234C142.19 244.39 142.106 244.462 141.938 244.462H136.634C136.454 244.462 136.394 244.378 136.394 244.234V243.718Z" fill="#CCCCCC"/>
<path d="M336.766 255.301C338.302 255.301 339.298 256.597 339.298 258.097C339.298 258.829 339.19 259.549 338.878 260.137C338.83 260.233 338.77 260.281 338.71 260.281C338.686 260.281 338.662 260.269 338.626 260.257L338.122 260.065C338.05 260.041 338.026 259.981 338.026 259.921C338.026 259.885 338.038 259.849 338.05 259.813C338.278 259.309 338.41 258.757 338.41 258.181C338.41 257.149 337.774 256.441 336.766 256.441C335.638 256.441 335.146 257.353 335.146 258.409V258.757C335.146 258.913 335.062 258.961 334.93 258.961H334.522C334.39 258.961 334.318 258.925 334.318 258.769V258.421C334.318 257.425 333.874 256.753 332.89 256.753C332.05 256.753 331.63 257.365 331.63 258.205C331.63 258.661 331.786 259.213 332.038 259.669C332.074 259.729 332.086 259.765 332.086 259.801C332.086 259.849 332.05 259.885 331.966 259.921L331.534 260.113C331.498 260.125 331.474 260.137 331.45 260.137C331.39 260.137 331.354 260.101 331.306 260.029C330.946 259.429 330.766 258.757 330.766 258.013C330.766 256.789 331.498 255.613 332.818 255.613C333.67 255.613 334.438 256.201 334.678 256.969C334.906 256.009 335.734 255.301 336.766 255.301ZM331.03 245.327C331.078 245.327 331.126 245.339 331.186 245.375L335.914 247.799H338.962C339.118 247.799 339.178 247.859 339.178 248.003V248.711C339.178 248.855 339.118 248.915 338.95 248.915H335.938L331.15 251.483C331.102 251.507 331.066 251.519 331.03 251.519C330.958 251.519 330.91 251.459 330.91 251.339V250.667C330.91 250.463 330.958 250.343 331.114 250.271L335.002 248.303V248.291L331.15 246.395C330.958 246.299 330.91 246.239 330.91 246.023V245.519C330.91 245.387 330.958 245.327 331.03 245.327ZM333.382 243.718C333.382 243.562 333.442 243.478 333.598 243.478L334.006 243.466C333.61 243.178 333.25 242.722 333.25 242.086C333.25 242.002 333.262 241.858 333.286 241.738C333.31 241.63 333.406 241.63 333.49 241.642L334.03 241.726C334.114 241.738 334.15 241.786 334.15 241.858C334.15 241.954 334.114 242.026 334.114 242.242C334.114 242.662 334.39 243.13 334.834 243.442H338.926C339.082 243.442 339.178 243.514 339.178 243.67V244.234C339.178 244.39 339.094 244.462 338.926 244.462H333.622C333.442 244.462 333.382 244.378 333.382 244.234V243.718Z" fill="#999999"/>
<path d="M543.156 255.181C544.836 255.181 545.796 256.465 545.796 258.133C545.796 258.781 545.616 259.465 545.304 260.065C545.232 260.197 545.184 260.245 545.112 260.245C545.076 260.245 545.028 260.233 544.98 260.209L544.536 260.017C544.44 259.981 544.404 259.933 544.404 259.873C544.404 259.825 544.428 259.765 544.464 259.693C544.752 259.117 544.872 258.637 544.872 258.061C544.872 257.125 544.308 256.321 543.204 256.321C542.616 256.321 542.184 256.525 541.896 256.837C541.512 257.269 541.38 257.929 541.38 258.685V259.441C541.38 259.681 541.26 259.801 541.02 259.801H537.684C537.48 259.801 537.408 259.717 537.408 259.537V255.877C537.408 255.697 537.468 255.601 537.66 255.601H538.08C538.26 255.601 538.32 255.649 538.32 255.853V258.721H540.552V258.361C540.552 256.669 541.296 255.181 543.156 255.181ZM539.88 250.415C539.88 250.295 539.928 250.223 540.036 250.187L544.524 248.627L540.06 247.115C539.928 247.067 539.88 247.007 539.88 246.863V246.203C539.88 246.095 539.928 246.047 540 246.047C540.036 246.047 540.072 246.059 540.108 246.071L546.384 248.411C547.8 248.939 548.304 249.539 548.304 250.835C548.304 251.015 548.292 251.195 548.256 251.375C548.232 251.483 548.16 251.507 548.076 251.507C548.052 251.507 548.04 251.507 548.016 251.507L547.56 251.447C547.44 251.435 547.392 251.375 547.392 251.267C547.392 251.255 547.392 251.243 547.392 251.219C547.404 251.087 547.428 250.919 547.428 250.799C547.428 250.139 547.164 249.743 546.54 249.491L545.772 249.179L540.084 251.327C539.988 251.363 539.88 251.327 539.88 251.207V250.415ZM539.88 244.397C539.88 244.241 539.94 244.157 540.096 244.157L540.504 244.145C540.108 243.857 539.748 243.401 539.748 242.765C539.748 242.681 539.76 242.537 539.784 242.417C539.808 242.309 539.904 242.309 539.988 242.321L540.528 242.405C540.612 242.417 540.648 242.465 540.648 242.537C540.648 242.633 540.612 242.705 540.612 242.921C540.612 243.341 540.888 243.809 541.332 244.121H545.424C545.58 244.121 545.676 244.193 545.676 244.349V244.913C545.676 245.069 545.592 245.141 545.424 245.141H540.12C539.94 245.141 539.88 245.057 539.88 244.913V244.397Z" fill="#999999"/>
<path d="M727.843 255.121H728.239C728.383 255.121 728.527 255.169 728.671 255.229L735.631 258.457C735.799 258.541 735.871 258.649 735.871 258.829V259.501C735.871 259.633 735.787 259.693 735.691 259.693C735.643 259.693 735.607 259.681 735.559 259.657L728.539 256.345V260.173C728.539 260.365 728.467 260.425 728.299 260.425H727.843C727.687 260.425 727.603 260.377 727.603 260.185V255.373C727.603 255.181 727.663 255.121 727.843 255.121ZM727.723 245.327C727.771 245.327 727.819 245.339 727.879 245.375L732.607 247.799H735.655C735.811 247.799 735.871 247.859 735.871 248.003V248.711C735.871 248.855 735.811 248.915 735.643 248.915H732.631L727.843 251.483C727.795 251.507 727.759 251.519 727.723 251.519C727.651 251.519 727.603 251.459 727.603 251.339V250.667C727.603 250.463 727.651 250.343 727.807 250.271L731.695 248.303V248.291L727.843 246.395C727.651 246.299 727.603 246.239 727.603 246.023V245.519C727.603 245.387 727.651 245.327 727.723 245.327ZM730.075 243.718C730.075 243.562 730.135 243.478 730.291 243.478L730.699 243.466C730.303 243.178 729.943 242.722 729.943 242.086C729.943 242.002 729.955 241.858 729.979 241.738C730.003 241.63 730.099 241.63 730.183 241.642L730.723 241.726C730.807 241.738 730.843 241.786 730.843 241.858C730.843 241.954 730.807 242.026 730.807 242.242C730.807 242.662 731.083 243.13 731.527 243.442H735.619C735.775 243.442 735.871 243.514 735.871 243.67V244.234C735.871 244.39 735.787 244.462 735.619 244.462H730.315C730.135 244.462 730.075 244.378 730.075 244.234V243.718Z" fill="#999999"/>
<path d="M924.866 256.861H932.57C932.774 256.861 932.858 256.933 932.858 257.125V257.653C932.858 257.869 932.774 257.941 932.57 257.941H925.778L926.846 259.681C926.882 259.741 926.906 259.801 926.906 259.849C926.906 259.909 926.882 259.969 926.81 260.005L926.414 260.245C926.366 260.269 926.318 260.293 926.282 260.293C926.21 260.293 926.138 260.245 926.078 260.137L924.698 257.929C924.602 257.785 924.59 257.689 924.59 257.485V257.101C924.59 256.933 924.686 256.861 924.866 256.861ZM928.694 248.368C930.602 248.368 932.978 249.052 932.978 251.224C932.978 253.396 930.638 254.056 928.73 254.056C926.834 254.056 924.446 253.336 924.446 251.188C924.446 249.016 926.786 248.368 928.694 248.368ZM928.706 249.532C927.278 249.532 925.382 249.868 925.382 251.2C925.382 252.568 927.302 252.892 928.706 252.892C930.122 252.892 932.03 252.58 932.03 251.212C932.03 249.844 930.11 249.532 928.706 249.532ZM927.062 243.817C927.062 243.697 927.11 243.625 927.218 243.589L931.706 242.029L927.242 240.517C927.11 240.469 927.062 240.409 927.062 240.265V239.605C927.062 239.497 927.11 239.449 927.182 239.449C927.218 239.449 927.254 239.461 927.29 239.473L933.566 241.813C934.982 242.341 935.486 242.941 935.486 244.237C935.486 244.417 935.474 244.597 935.438 244.777C935.414 244.885 935.342 244.909 935.258 244.909C935.234 244.909 935.222 244.909 935.198 244.909L934.742 244.849C934.622 244.837 934.574 244.777 934.574 244.669C934.574 244.657 934.574 244.645 934.574 244.621C934.586 244.489 934.61 244.321 934.61 244.201C934.61 243.541 934.346 243.145 933.722 242.893L932.954 242.581L927.266 244.729C927.17 244.765 927.062 244.729 927.062 244.609V243.817ZM927.062 237.8C927.062 237.644 927.122 237.56 927.278 237.56L927.686 237.548C927.29 237.26 926.93 236.804 926.93 236.168C926.93 236.084 926.942 235.94 926.966 235.82C926.99 235.712 927.086 235.712 927.17 235.724L927.71 235.808C927.794 235.82 927.83 235.868 927.83 235.94C927.83 236.036 927.794 236.108 927.794 236.324C927.794 236.744 928.07 237.212 928.514 237.524H932.606C932.762 237.524 932.858 237.596 932.858 237.752V238.316C932.858 238.472 932.774 238.544 932.606 238.544H927.302C927.122 238.544 927.062 238.46 927.062 238.316V237.8Z" fill="#999999"/>
<path d="M1135.26 255.524C1136.63 255.524 1137.76 255.968 1138.48 256.76C1139.1 257.444 1139.36 258.512 1139.36 259.712V261.8C1139.36 262.028 1139.28 262.1 1139.07 262.1H1131.42C1131.18 262.1 1131.09 262.016 1131.09 261.752V260.24C1131.09 258.716 1131.22 257.924 1131.69 257.168C1132.32 256.148 1133.57 255.524 1135.26 255.524ZM1135.25 256.712C1134.1 256.712 1133.1 257.06 1132.56 257.732C1132.11 258.296 1131.99 259.028 1131.99 259.844V260.984H1138.47V259.952C1138.47 258.896 1138.36 258.152 1137.8 257.588C1137.21 257.012 1136.33 256.712 1135.25 256.712ZM1138.79 248.865H1139.2C1139.32 248.865 1139.36 248.925 1139.36 249.045V249.549C1139.36 250.077 1138.95 250.329 1138.47 250.329V250.353C1139 250.629 1139.48 251.421 1139.48 252.153C1139.48 253.809 1138.07 254.541 1136.56 254.541C1134.56 254.541 1133.43 253.353 1133.43 251.985C1133.43 251.385 1133.68 250.737 1134.16 250.377L1133.76 250.365C1133.62 250.365 1133.56 250.269 1133.56 250.137V249.597C1133.56 249.453 1133.63 249.381 1133.79 249.381H1137.99C1138.26 249.381 1138.46 249.369 1138.53 249.321C1138.61 249.273 1138.64 249.213 1138.64 249.117V249.033C1138.64 248.925 1138.66 248.865 1138.79 248.865ZM1137.41 250.401H1135.11C1134.57 250.689 1134.24 251.277 1134.24 251.853C1134.24 252.777 1135.06 253.473 1136.49 253.473C1137.81 253.473 1138.62 252.861 1138.62 251.997C1138.62 251.229 1138.01 250.617 1137.41 250.401ZM1138.43 246.236C1138.58 246.104 1138.67 245.888 1138.67 245.576C1138.67 245.3 1138.59 245.012 1138.53 244.82C1138.49 244.736 1138.53 244.64 1138.64 244.604L1139.02 244.508C1139.14 244.484 1139.2 244.52 1139.26 244.664C1139.37 244.94 1139.48 245.372 1139.48 245.78C1139.48 246.296 1139.33 246.812 1139.03 247.088C1138.65 247.436 1138.17 247.46 1137.42 247.46H1134.28V248.12C1134.28 248.276 1134.26 248.3 1134.1 248.3H1133.73C1133.61 248.3 1133.56 248.252 1133.56 248.144V247.46H1132.19C1132.02 247.46 1131.98 247.412 1131.95 247.256L1131.87 246.668C1131.87 246.656 1131.87 246.632 1131.87 246.62C1131.87 246.5 1131.95 246.44 1132.08 246.44H1133.56V245.024C1133.56 244.916 1133.58 244.856 1133.72 244.856H1134.12C1134.24 244.856 1134.28 244.916 1134.28 245.036V246.44H1137.52C1137.92 246.44 1138.23 246.416 1138.43 246.236ZM1138.79 238.435H1139.2C1139.32 238.435 1139.36 238.495 1139.36 238.615V239.119C1139.36 239.647 1138.95 239.899 1138.47 239.899V239.923C1139 240.199 1139.48 240.991 1139.48 241.723C1139.48 243.379 1138.07 244.111 1136.56 244.111C1134.56 244.111 1133.43 242.923 1133.43 241.555C1133.43 240.955 1133.68 240.307 1134.16 239.947L1133.76 239.935C1133.62 239.935 1133.56 239.839 1133.56 239.707V239.167C1133.56 239.023 1133.63 238.951 1133.79 238.951H1137.99C1138.26 238.951 1138.46 238.939 1138.53 238.891C1138.61 238.843 1138.64 238.783 1138.64 238.687V238.603C1138.64 238.495 1138.66 238.435 1138.79 238.435ZM1137.41 239.971H1135.11C1134.57 240.259 1134.24 240.847 1134.24 241.423C1134.24 242.347 1135.06 243.043 1136.49 243.043C1137.81 243.043 1138.62 242.431 1138.62 241.567C1138.62 240.799 1138.01 240.187 1137.41 239.971Z" fill="#999999"/>
<line x1="51.7632" y1="231.702" x2="1199" y2="231.702" stroke="#CCCCCC"/>
<path d="M412.005 11.4314V11.8154C412.005 11.9834 411.957 12.0074 411.801 12.0074H411.069V18.7754H411.789C411.933 18.7754 411.993 18.8474 411.993 18.9554V19.3394C411.993 19.4714 411.957 19.5314 411.825 19.5314H409.269C409.137 19.5314 409.089 19.4714 409.089 19.3514V18.9434C409.089 18.8234 409.125 18.7754 409.269 18.7754H409.989V12.0074H409.221C409.089 12.0074 409.041 11.9714 409.041 11.8394V11.4434C409.041 11.3234 409.089 11.2634 409.209 11.2634H411.801C411.957 11.2634 412.005 11.3234 412.005 11.4314ZM418.45 15.7514V19.2794C418.45 19.4474 418.39 19.5314 418.222 19.5314H417.658C417.502 19.5314 417.43 19.4474 417.43 19.2794V15.9194C417.43 15.0674 417.214 14.4554 416.254 14.4554C415.702 14.4554 415.018 14.7674 414.598 15.1514V19.2794C414.598 19.4474 414.526 19.5314 414.37 19.5314H413.806C413.662 19.5314 413.578 19.4474 413.578 19.2914V13.9754C413.578 13.8074 413.638 13.7354 413.806 13.7354H414.334C414.478 13.7354 414.562 13.7954 414.562 13.9514L414.574 14.3234C415.126 13.8554 415.846 13.6034 416.542 13.6034C417.922 13.6034 418.45 14.4434 418.45 15.7514ZM424.919 11.2034V19.2794C424.919 19.4354 424.847 19.5314 424.739 19.5314H424.223C424.043 19.5314 423.971 19.4594 423.971 19.3034L423.959 18.8714C423.575 19.3274 422.879 19.6514 422.195 19.6514C420.467 19.6514 419.723 18.2354 419.723 16.6634C419.723 14.8994 420.755 13.5914 422.339 13.5914C422.891 13.5914 423.551 13.8434 423.899 14.2634V11.3354C423.899 11.1794 423.935 11.1074 424.091 11.0834C424.703 10.9994 424.715 10.9994 424.739 10.9994C424.859 10.9994 424.919 11.0594 424.919 11.2034ZM423.899 18.0434V15.2474C423.647 14.7914 423.071 14.4074 422.483 14.4074C421.403 14.4074 420.779 15.2954 420.779 16.6154C420.779 17.8874 421.343 18.8354 422.387 18.8354C422.951 18.8354 423.599 18.4754 423.899 18.0434ZM431.303 16.2434V16.4474C431.303 16.7234 431.255 16.7834 430.943 16.7834H427.259C427.295 17.9234 427.943 18.8114 429.155 18.8114C429.647 18.8114 430.187 18.7154 430.595 18.5594C430.703 18.5234 430.823 18.4994 430.859 18.6434L430.991 19.0874C431.027 19.1954 430.967 19.2434 430.859 19.3034C430.343 19.5434 429.575 19.6514 429.023 19.6514C427.175 19.6514 426.191 18.4394 426.191 16.6274C426.191 14.9114 427.259 13.6034 428.987 13.6034C429.671 13.6034 430.223 13.8554 430.619 14.2634C431.099 14.7554 431.303 15.4634 431.303 16.2434ZM427.283 16.0874H430.295V15.9194C430.295 15.1034 429.851 14.3954 428.939 14.3954C427.943 14.3954 427.379 15.1994 427.283 16.0874ZM437.076 19.4234C437.076 19.4954 437.028 19.5314 436.944 19.5314H436.08C435.912 19.5314 435.852 19.4834 435.78 19.3754L434.436 17.2514H434.424L433.032 19.3754C432.96 19.4834 432.876 19.5314 432.72 19.5314H432.012C431.94 19.5314 431.904 19.4954 431.904 19.4354C431.904 19.3994 431.916 19.3514 431.952 19.3034L433.944 16.5434L432.204 13.9514C432.18 13.9154 432.168 13.8914 432.168 13.8554C432.168 13.7834 432.228 13.7354 432.312 13.7354H433.14C433.272 13.7354 433.344 13.7834 433.392 13.8674L434.568 15.7034H434.58L435.804 13.8914C435.876 13.7714 435.948 13.7354 436.068 13.7354H436.812C436.896 13.7354 436.92 13.7714 436.92 13.8194C436.92 13.8554 436.908 13.8794 436.884 13.9154L435.06 16.4114L437.028 19.2914C437.064 19.3394 437.076 19.3874 437.076 19.4234ZM446.355 17.1554C446.355 19.0394 444.915 19.5314 443.235 19.5314H441.219C441.027 19.5314 440.967 19.4714 440.967 19.2674V11.5274C440.967 11.3234 441.039 11.2634 441.267 11.2634H442.911C444.591 11.2634 445.719 11.8154 445.719 13.2794C445.719 14.1554 445.215 14.8994 444.279 15.0914V15.1034C445.455 15.1514 446.355 15.9194 446.355 17.1554ZM444.627 13.3514C444.627 12.3314 443.811 12.1154 442.851 12.1154H442.083V14.7914H442.899C443.739 14.7914 444.627 14.5754 444.627 13.3514ZM445.227 17.1434C445.227 16.5074 444.939 16.1114 444.519 15.8834C444.123 15.6794 443.643 15.6074 443.091 15.6074H442.083V18.6794H443.127C443.631 18.6794 444.087 18.6314 444.435 18.4754C444.915 18.2594 445.227 17.8394 445.227 17.1434ZM452.491 16.2434V16.4474C452.491 16.7234 452.443 16.7834 452.131 16.7834H448.447C448.483 17.9234 449.131 18.8114 450.343 18.8114C450.835 18.8114 451.375 18.7154 451.783 18.5594C451.891 18.5234 452.011 18.4994 452.047 18.6434L452.179 19.0874C452.215 19.1954 452.155 19.2434 452.047 19.3034C451.531 19.5434 450.763 19.6514 450.211 19.6514C448.363 19.6514 447.379 18.4394 447.379 16.6274C447.379 14.9114 448.447 13.6034 450.175 13.6034C450.859 13.6034 451.411 13.8554 451.807 14.2634C452.287 14.7554 452.491 15.4634 452.491 16.2434ZM448.471 16.0874H451.483V15.9194C451.483 15.1034 451.039 14.3954 450.127 14.3954C449.131 14.3954 448.567 15.1994 448.471 16.0874ZM458.563 15.7514V19.2794C458.563 19.4474 458.503 19.5314 458.335 19.5314H457.771C457.615 19.5314 457.543 19.4474 457.543 19.2794V15.9194C457.543 15.0674 457.327 14.4554 456.367 14.4554C455.815 14.4554 455.131 14.7674 454.711 15.1514V19.2794C454.711 19.4474 454.639 19.5314 454.483 19.5314H453.919C453.775 19.5314 453.691 19.4474 453.691 19.2914V13.9754C453.691 13.8074 453.751 13.7354 453.919 13.7354H454.447C454.591 13.7354 454.675 13.7954 454.675 13.9514L454.687 14.3234C455.239 13.8554 455.959 13.6034 456.655 13.6034C458.035 13.6034 458.563 14.4434 458.563 15.7514ZM464.372 19.1474C464.372 19.2194 464.336 19.2554 464.228 19.3034C463.712 19.5434 463.16 19.6514 462.608 19.6514C460.724 19.6514 459.812 18.4274 459.812 16.6394C459.812 14.8754 460.88 13.6034 462.68 13.6034C463.196 13.6034 463.796 13.7354 464.216 13.9514C464.3 13.9874 464.336 14.0354 464.336 14.1074C464.336 14.1434 464.324 14.1674 464.312 14.2034L464.216 14.5874C464.192 14.6714 464.156 14.7314 464.084 14.7314C464.06 14.7314 464.012 14.7194 463.976 14.6954C463.604 14.5274 463.196 14.3954 462.728 14.3954C461.588 14.3954 460.868 15.2474 460.868 16.5914C460.868 17.8154 461.396 18.8714 462.68 18.8714C463.196 18.8714 463.64 18.7514 464.024 18.5834C464.06 18.5714 464.096 18.5594 464.12 18.5594C464.18 18.5594 464.216 18.5954 464.24 18.6794L464.348 19.0154C464.36 19.0634 464.372 19.1114 464.372 19.1474ZM470.223 15.7514V19.3034C470.223 19.4594 470.175 19.5314 470.031 19.5314H469.407C469.263 19.5314 469.203 19.4594 469.203 19.3034V15.9194C469.203 15.0794 468.987 14.4554 468.039 14.4554C467.487 14.4554 466.791 14.7674 466.371 15.1514V19.3034C466.371 19.4594 466.311 19.5314 466.167 19.5314H465.543C465.411 19.5314 465.351 19.4594 465.351 19.3154V11.3354C465.351 11.1674 465.435 11.1074 465.579 11.0834C466.035 11.0234 466.155 10.9994 466.191 10.9994C466.299 10.9994 466.371 11.0474 466.371 11.2034V14.3114C466.899 13.8434 467.667 13.6034 468.339 13.6034C469.719 13.6034 470.223 14.4434 470.223 15.7514ZM480.172 15.9434V19.2794C480.172 19.4474 480.1 19.5314 479.944 19.5314H479.392C479.236 19.5314 479.152 19.4474 479.152 19.2794V15.9074C479.152 15.0434 478.936 14.4434 477.964 14.4434C477.472 14.4434 476.884 14.6834 476.464 15.0074C476.536 15.2354 476.56 15.9554 476.56 16.3274V19.2794C476.56 19.4474 476.488 19.5314 476.332 19.5314H475.78C475.624 19.5314 475.54 19.4474 475.54 19.2794V15.9074C475.54 15.0794 475.36 14.4434 474.412 14.4434C473.86 14.4434 473.284 14.7554 472.852 15.1514V19.2794C472.852 19.4474 472.78 19.5314 472.624 19.5314H472.06C471.904 19.5314 471.832 19.4474 471.832 19.2794V13.9754C471.832 13.8194 471.916 13.7354 472.06 13.7354H472.576C472.72 13.7354 472.816 13.7954 472.816 13.9514L472.828 14.3234C473.332 13.8674 474.004 13.6034 474.652 13.6034C475.312 13.6034 475.9 13.8434 476.212 14.3474C476.764 13.8554 477.52 13.6034 478.216 13.6034C479.02 13.6034 479.524 13.9034 479.812 14.3474C480.064 14.7434 480.172 15.2714 480.172 15.9434ZM487.085 18.9674V19.3754C487.085 19.4954 487.025 19.5314 486.905 19.5314H486.401C485.873 19.5314 485.621 19.1234 485.621 18.6434H485.597C485.321 19.1714 484.529 19.6514 483.797 19.6514C482.141 19.6514 481.409 18.2474 481.409 16.7354C481.409 14.7314 482.597 13.6034 483.965 13.6034C484.565 13.6034 485.213 13.8554 485.573 14.3354L485.585 13.9394C485.585 13.7954 485.681 13.7354 485.813 13.7354H486.353C486.497 13.7354 486.569 13.8074 486.569 13.9634V18.1634C486.569 18.4394 486.581 18.6314 486.629 18.7034C486.677 18.7874 486.737 18.8114 486.833 18.8114H486.917C487.025 18.8114 487.085 18.8354 487.085 18.9674ZM485.549 17.5874V15.2834C485.261 14.7434 484.673 14.4194 484.097 14.4194C483.173 14.4194 482.477 15.2354 482.477 16.6634C482.477 17.9834 483.089 18.7994 483.953 18.7994C484.721 18.7994 485.333 18.1874 485.549 17.5874ZM488.982 13.7354C489.138 13.7354 489.222 13.7954 489.222 13.9514L489.234 14.3594C489.522 13.9634 489.978 13.6034 490.614 13.6034C490.698 13.6034 490.842 13.6154 490.962 13.6394C491.07 13.6634 491.07 13.7594 491.058 13.8434L490.974 14.3834C490.962 14.4674 490.914 14.5034 490.842 14.5034C490.746 14.5034 490.674 14.4674 490.458 14.4674C490.038 14.4674 489.57 14.7434 489.258 15.1874V19.2794C489.258 19.4354 489.186 19.5314 489.03 19.5314H488.466C488.31 19.5314 488.238 19.4474 488.238 19.2794V13.9754C488.238 13.7954 488.322 13.7354 488.466 13.7354H488.982ZM495.468 19.5314C495.288 19.5314 495.18 19.4714 495.084 19.3274L493.296 16.6394L493.032 16.9034V19.2674C493.032 19.4594 492.948 19.5314 492.792 19.5314H492.228C492.084 19.5314 492.012 19.4474 492.012 19.2914V11.3234C492.012 11.1674 492.06 11.1074 492.204 11.0834C492.78 10.9994 492.804 10.9874 492.828 10.9874C492.948 10.9874 493.032 11.0594 493.032 11.2154V16.0514H493.056L494.916 13.8674C495 13.7714 495.06 13.7354 495.168 13.7354H495.948C496.08 13.7354 496.08 13.8434 496.008 13.9154L494.112 16.0754L496.26 19.2314C496.368 19.3874 496.368 19.5314 496.128 19.5314H495.468Z" fill="#333333" fill-opacity="0.8"/>
<rect x="378" y="13.9182" width="22.0517" height="3.19346" fill="#3265AA"/>
<path d="M589.797 11.4314V11.8154C589.797 11.9834 589.749 12.0074 589.593 12.0074H588.861V18.7754H589.581C589.725 18.7754 589.785 18.8474 589.785 18.9554V19.3394C589.785 19.4714 589.749 19.5314 589.617 19.5314H587.061C586.929 19.5314 586.881 19.4714 586.881 19.3514V18.9434C586.881 18.8234 586.917 18.7754 587.061 18.7754H587.781V12.0074H587.013C586.881 12.0074 586.833 11.9714 586.833 11.8394V11.4434C586.833 11.3234 586.881 11.2634 587.001 11.2634H589.593C589.749 11.2634 589.797 11.3234 589.797 11.4314ZM596.242 15.7514V19.2794C596.242 19.4474 596.182 19.5314 596.014 19.5314H595.45C595.294 19.5314 595.222 19.4474 595.222 19.2794V15.9194C595.222 15.0674 595.006 14.4554 594.046 14.4554C593.494 14.4554 592.81 14.7674 592.39 15.1514V19.2794C592.39 19.4474 592.318 19.5314 592.162 19.5314H591.598C591.454 19.5314 591.37 19.4474 591.37 19.2914V13.9754C591.37 13.8074 591.43 13.7354 591.598 13.7354H592.126C592.27 13.7354 592.354 13.7954 592.354 13.9514L592.366 14.3234C592.918 13.8554 593.638 13.6034 594.334 13.6034C595.714 13.6034 596.242 14.4434 596.242 15.7514ZM602.711 11.2034V19.2794C602.711 19.4354 602.639 19.5314 602.531 19.5314H602.015C601.835 19.5314 601.763 19.4594 601.763 19.3034L601.751 18.8714C601.367 19.3274 600.671 19.6514 599.987 19.6514C598.259 19.6514 597.515 18.2354 597.515 16.6634C597.515 14.8994 598.547 13.5914 600.131 13.5914C600.683 13.5914 601.343 13.8434 601.691 14.2634V11.3354C601.691 11.1794 601.727 11.1074 601.883 11.0834C602.495 10.9994 602.507 10.9994 602.531 10.9994C602.651 10.9994 602.711 11.0594 602.711 11.2034ZM601.691 18.0434V15.2474C601.439 14.7914 600.863 14.4074 600.275 14.4074C599.195 14.4074 598.571 15.2954 598.571 16.6154C598.571 17.8874 599.135 18.8354 600.179 18.8354C600.743 18.8354 601.391 18.4754 601.691 18.0434ZM609.095 16.2434V16.4474C609.095 16.7234 609.047 16.7834 608.735 16.7834H605.051C605.087 17.9234 605.735 18.8114 606.947 18.8114C607.439 18.8114 607.979 18.7154 608.387 18.5594C608.495 18.5234 608.615 18.4994 608.651 18.6434L608.783 19.0874C608.819 19.1954 608.759 19.2434 608.651 19.3034C608.135 19.5434 607.367 19.6514 606.815 19.6514C604.967 19.6514 603.983 18.4394 603.983 16.6274C603.983 14.9114 605.051 13.6034 606.779 13.6034C607.463 13.6034 608.015 13.8554 608.411 14.2634C608.891 14.7554 609.095 15.4634 609.095 16.2434ZM605.075 16.0874H608.087V15.9194C608.087 15.1034 607.643 14.3954 606.731 14.3954C605.735 14.3954 605.171 15.1994 605.075 16.0874ZM614.868 19.4234C614.868 19.4954 614.82 19.5314 614.736 19.5314H613.872C613.704 19.5314 613.644 19.4834 613.572 19.3754L612.228 17.2514H612.216L610.824 19.3754C610.752 19.4834 610.668 19.5314 610.512 19.5314H609.804C609.732 19.5314 609.696 19.4954 609.696 19.4354C609.696 19.3994 609.708 19.3514 609.744 19.3034L611.736 16.5434L609.996 13.9514C609.972 13.9154 609.96 13.8914 609.96 13.8554C609.96 13.7834 610.02 13.7354 610.104 13.7354H610.932C611.064 13.7354 611.136 13.7834 611.184 13.8674L612.36 15.7034H612.372L613.596 13.8914C613.668 13.7714 613.74 13.7354 613.86 13.7354H614.604C614.688 13.7354 614.712 13.7714 614.712 13.8194C614.712 13.8554 614.7 13.8794 614.676 13.9154L612.852 16.4114L614.82 19.2914C614.856 19.3394 614.868 19.3874 614.868 19.4234ZM622.107 11.5394V19.2434C622.107 19.4474 622.035 19.5314 621.843 19.5314H621.315C621.099 19.5314 621.027 19.4474 621.027 19.2434V12.4514L619.287 13.5194C619.227 13.5554 619.167 13.5794 619.119 13.5794C619.059 13.5794 618.999 13.5554 618.963 13.4834L618.723 13.0874C618.699 13.0394 618.675 12.9914 618.675 12.9554C618.675 12.8834 618.723 12.8114 618.831 12.7514L621.039 11.3714C621.183 11.2754 621.279 11.2634 621.483 11.2634H621.867C622.035 11.2634 622.107 11.3594 622.107 11.5394Z" fill="#333333" fill-opacity="0.8"/>
<rect x="555.792" y="13.9182" width="22.0517" height="3.19346" fill="#4CB4E6"/>
<path d="M698.676 11.4314V11.8154C698.676 11.9834 698.628 12.0074 698.472 12.0074H697.74V18.7754H698.46C698.604 18.7754 698.664 18.8474 698.664 18.9554V19.3394C698.664 19.4714 698.628 19.5314 698.496 19.5314H695.94C695.808 19.5314 695.76 19.4714 695.76 19.3514V18.9434C695.76 18.8234 695.796 18.7754 695.94 18.7754H696.66V12.0074H695.892C695.76 12.0074 695.712 11.9714 695.712 11.8394V11.4434C695.712 11.3234 695.76 11.2634 695.88 11.2634H698.472C698.628 11.2634 698.676 11.3234 698.676 11.4314ZM705.121 15.7514V19.2794C705.121 19.4474 705.061 19.5314 704.893 19.5314H704.329C704.173 19.5314 704.101 19.4474 704.101 19.2794V15.9194C704.101 15.0674 703.885 14.4554 702.925 14.4554C702.373 14.4554 701.689 14.7674 701.269 15.1514V19.2794C701.269 19.4474 701.197 19.5314 701.041 19.5314H700.477C700.333 19.5314 700.249 19.4474 700.249 19.2914V13.9754C700.249 13.8074 700.309 13.7354 700.477 13.7354H701.005C701.149 13.7354 701.233 13.7954 701.233 13.9514L701.245 14.3234C701.797 13.8554 702.517 13.6034 703.213 13.6034C704.593 13.6034 705.121 14.4434 705.121 15.7514ZM711.59 11.2034V19.2794C711.59 19.4354 711.518 19.5314 711.41 19.5314H710.894C710.714 19.5314 710.642 19.4594 710.642 19.3034L710.63 18.8714C710.246 19.3274 709.55 19.6514 708.866 19.6514C707.138 19.6514 706.394 18.2354 706.394 16.6634C706.394 14.8994 707.426 13.5914 709.01 13.5914C709.562 13.5914 710.222 13.8434 710.57 14.2634V11.3354C710.57 11.1794 710.606 11.1074 710.762 11.0834C711.374 10.9994 711.386 10.9994 711.41 10.9994C711.53 10.9994 711.59 11.0594 711.59 11.2034ZM710.57 18.0434V15.2474C710.318 14.7914 709.742 14.4074 709.154 14.4074C708.074 14.4074 707.45 15.2954 707.45 16.6154C707.45 17.8874 708.014 18.8354 709.058 18.8354C709.622 18.8354 710.27 18.4754 710.57 18.0434ZM717.974 16.2434V16.4474C717.974 16.7234 717.926 16.7834 717.614 16.7834H713.93C713.966 17.9234 714.614 18.8114 715.826 18.8114C716.318 18.8114 716.858 18.7154 717.266 18.5594C717.374 18.5234 717.494 18.4994 717.53 18.6434L717.662 19.0874C717.698 19.1954 717.638 19.2434 717.53 19.3034C717.014 19.5434 716.246 19.6514 715.694 19.6514C713.846 19.6514 712.862 18.4394 712.862 16.6274C712.862 14.9114 713.93 13.6034 715.658 13.6034C716.342 13.6034 716.894 13.8554 717.29 14.2634C717.77 14.7554 717.974 15.4634 717.974 16.2434ZM713.954 16.0874H716.966V15.9194C716.966 15.1034 716.522 14.3954 715.61 14.3954C714.614 14.3954 714.05 15.1994 713.954 16.0874ZM723.747 19.4234C723.747 19.4954 723.699 19.5314 723.615 19.5314H722.751C722.583 19.5314 722.523 19.4834 722.451 19.3754L721.107 17.2514H721.095L719.703 19.3754C719.631 19.4834 719.547 19.5314 719.391 19.5314H718.683C718.611 19.5314 718.575 19.4954 718.575 19.4354C718.575 19.3994 718.587 19.3514 718.623 19.3034L720.615 16.5434L718.875 13.9514C718.851 13.9154 718.839 13.8914 718.839 13.8554C718.839 13.7834 718.899 13.7354 718.983 13.7354H719.811C719.943 13.7354 720.015 13.7834 720.063 13.8674L721.239 15.7034H721.251L722.475 13.8914C722.547 13.7714 722.619 13.7354 722.739 13.7354H723.483C723.567 13.7354 723.591 13.7714 723.591 13.8194C723.591 13.8554 723.579 13.8794 723.555 13.9154L721.731 16.4114L723.699 19.2914C723.735 19.3394 723.747 19.3874 723.747 19.4234ZM732.618 18.8474V19.2674C732.618 19.4354 732.546 19.5314 732.33 19.5314H727.806C727.602 19.5314 727.542 19.4594 727.542 19.2674V18.8714C727.542 18.7034 727.566 18.6314 727.686 18.5114C728.322 17.8394 729.042 17.1794 729.654 16.5194C730.794 15.2954 731.466 14.3354 731.466 13.4234C731.466 12.5714 730.866 12.0674 730.026 12.0674C729.45 12.0674 728.85 12.2594 728.31 12.5714C728.262 12.5954 728.226 12.6074 728.19 12.6074C728.118 12.6074 728.07 12.5594 728.022 12.4634L727.842 12.0794C727.818 12.0314 727.806 11.9834 727.806 11.9474C727.806 11.8754 727.854 11.8154 727.938 11.7554C728.586 11.3474 729.39 11.1194 730.182 11.1194C731.514 11.1194 732.618 11.8874 732.618 13.3154C732.618 14.5634 731.862 15.6074 730.386 17.1434C729.906 17.6474 729.402 18.1394 728.934 18.6074H732.33C732.534 18.6074 732.618 18.6674 732.618 18.8474Z" fill="#333333" fill-opacity="0.8"/>
<rect x="664.671" y="13.9182" width="22.0517" height="3.19346" fill="#E9702F"/>
<path d="M807.558 11.4314V11.8154C807.558 11.9834 807.51 12.0074 807.354 12.0074H806.622V18.7754H807.342C807.486 18.7754 807.546 18.8474 807.546 18.9554V19.3394C807.546 19.4714 807.51 19.5314 807.378 19.5314H804.822C804.69 19.5314 804.642 19.4714 804.642 19.3514V18.9434C804.642 18.8234 804.678 18.7754 804.822 18.7754H805.542V12.0074H804.774C804.642 12.0074 804.594 11.9714 804.594 11.8394V11.4434C804.594 11.3234 804.642 11.2634 804.762 11.2634H807.354C807.51 11.2634 807.558 11.3234 807.558 11.4314ZM814.003 15.7514V19.2794C814.003 19.4474 813.943 19.5314 813.775 19.5314H813.211C813.055 19.5314 812.983 19.4474 812.983 19.2794V15.9194C812.983 15.0674 812.767 14.4554 811.807 14.4554C811.255 14.4554 810.571 14.7674 810.151 15.1514V19.2794C810.151 19.4474 810.079 19.5314 809.923 19.5314H809.359C809.215 19.5314 809.131 19.4474 809.131 19.2914V13.9754C809.131 13.8074 809.191 13.7354 809.359 13.7354H809.887C810.031 13.7354 810.115 13.7954 810.115 13.9514L810.127 14.3234C810.679 13.8554 811.399 13.6034 812.095 13.6034C813.475 13.6034 814.003 14.4434 814.003 15.7514ZM820.471 11.2034V19.2794C820.471 19.4354 820.399 19.5314 820.291 19.5314H819.775C819.595 19.5314 819.523 19.4594 819.523 19.3034L819.511 18.8714C819.127 19.3274 818.431 19.6514 817.747 19.6514C816.019 19.6514 815.275 18.2354 815.275 16.6634C815.275 14.8994 816.307 13.5914 817.891 13.5914C818.443 13.5914 819.103 13.8434 819.451 14.2634V11.3354C819.451 11.1794 819.487 11.1074 819.643 11.0834C820.255 10.9994 820.267 10.9994 820.291 10.9994C820.411 10.9994 820.471 11.0594 820.471 11.2034ZM819.451 18.0434V15.2474C819.199 14.7914 818.623 14.4074 818.035 14.4074C816.955 14.4074 816.331 15.2954 816.331 16.6154C816.331 17.8874 816.895 18.8354 817.939 18.8354C818.503 18.8354 819.151 18.4754 819.451 18.0434ZM826.856 16.2434V16.4474C826.856 16.7234 826.808 16.7834 826.496 16.7834H822.812C822.848 17.9234 823.496 18.8114 824.708 18.8114C825.2 18.8114 825.74 18.7154 826.148 18.5594C826.256 18.5234 826.376 18.4994 826.412 18.6434L826.544 19.0874C826.58 19.1954 826.52 19.2434 826.412 19.3034C825.896 19.5434 825.128 19.6514 824.576 19.6514C822.728 19.6514 821.744 18.4394 821.744 16.6274C821.744 14.9114 822.812 13.6034 824.54 13.6034C825.224 13.6034 825.776 13.8554 826.172 14.2634C826.652 14.7554 826.856 15.4634 826.856 16.2434ZM822.836 16.0874H825.848V15.9194C825.848 15.1034 825.404 14.3954 824.492 14.3954C823.496 14.3954 822.932 15.1994 822.836 16.0874ZM832.628 19.4234C832.628 19.4954 832.58 19.5314 832.496 19.5314H831.632C831.464 19.5314 831.404 19.4834 831.332 19.3754L829.988 17.2514H829.976L828.584 19.3754C828.512 19.4834 828.428 19.5314 828.272 19.5314H827.564C827.492 19.5314 827.456 19.4954 827.456 19.4354C827.456 19.3994 827.468 19.3514 827.504 19.3034L829.496 16.5434L827.756 13.9514C827.732 13.9154 827.72 13.8914 827.72 13.8554C827.72 13.7834 827.78 13.7354 827.864 13.7354H828.692C828.824 13.7354 828.896 13.7834 828.944 13.8674L830.12 15.7034H830.132L831.356 13.8914C831.428 13.7714 831.5 13.7354 831.62 13.7354H832.364C832.448 13.7354 832.472 13.7714 832.472 13.8194C832.472 13.8554 832.46 13.8794 832.436 13.9154L830.612 16.4114L832.58 19.2914C832.616 19.3394 832.628 19.3874 832.628 19.4234ZM841.428 17.1194C841.428 18.6554 840.132 19.6514 838.632 19.6514C837.9 19.6514 837.18 19.5434 836.592 19.2314C836.496 19.1834 836.448 19.1234 836.448 19.0634C836.448 19.0394 836.46 19.0154 836.472 18.9794L836.664 18.4754C836.688 18.4034 836.748 18.3794 836.808 18.3794C836.844 18.3794 836.88 18.3914 836.916 18.4034C837.42 18.6314 837.972 18.7634 838.548 18.7634C839.58 18.7634 840.288 18.1274 840.288 17.1194C840.288 15.9914 839.376 15.4994 838.32 15.4994H837.972C837.816 15.4994 837.768 15.4154 837.768 15.2834V14.8754C837.768 14.7434 837.804 14.6714 837.96 14.6714H838.308C839.304 14.6714 839.976 14.2274 839.976 13.2434C839.976 12.4034 839.364 11.9834 838.524 11.9834C838.068 11.9834 837.516 12.1394 837.06 12.3914C837 12.4274 836.964 12.4394 836.928 12.4394C836.88 12.4394 836.844 12.4034 836.808 12.3194L836.616 11.8874C836.604 11.8514 836.592 11.8274 836.592 11.8034C836.592 11.7434 836.628 11.7074 836.7 11.6594C837.3 11.2994 837.972 11.1194 838.716 11.1194C839.94 11.1194 841.116 11.8514 841.116 13.1714C841.116 14.0234 840.528 14.7914 839.76 15.0314C840.72 15.2594 841.428 16.0874 841.428 17.1194Z" fill="#333333" fill-opacity="0.8"/>
<rect x="773.552" y="13.9182" width="22.0517" height="3.19346" fill="#A9264F"/>
<path d="M70 151.921L81.101 151.637L92.202 147.638L103.303 154.203L114.404 160.14L125.505 163.896L136.606 155.928L147.707 149.477L158.808 141.688L169.909 148.054L181.01 149.083L192.111 140.388L203.212 135.517L214.313 130.648L225.414 127.158L236.515 117.907L247.616 125.87L258.717 125.684L269.818 127.785L280.919 121.412L292.02 128.724L303.121 133.225L314.222 137.142L325.323 136.429L336.424 134.573L347.525 138.296L358.626 145.2L369.727 142.496L380.828 148.911L391.929 155.873L403.03 151.914L414.131 145.236L425.232 150.906L436.333 157.467L447.434 149.923L458.535 145.654L469.636 150.445L480.737 150.025L491.838 156.067L502.939 151.536L514.04 151.352L525.141 155.781L536.242 161.414L547.343 155.923L558.444 151.705L569.545 154.246L580.646 162.826L591.747 158.17L602.849 158.928L613.95 161.437L625.05 169.66L636.151 176.479L647.252 169.195L658.354 176.263L669.455 170.073L680.556 168.996L691.657 163.319L702.758 159.635L713.859 154.801L724.96 159.533L736.061 161.493L747.162 162.339L758.263 154.357L769.364 149.759L780.465 158.203L791.566 166.881L802.667 173.116L813.768 179.683L824.869 171.796L835.97 167.29L847.071 173.435L858.172 170.689L869.273 178.978L880.374 187.751L891.475 192.056L902.576 192.153L913.677 197.744L924.778 194.251L935.879 186.482L946.98 188.171L958.081 180.916L969.182 173.865L980.283 183.208L991.384 179.011L1002.48 174.487L1013.59 183.158L1024.69 180.41L1035.79 186.117L1046.89 178.02L1057.99 181.726L1069.09 184.149L1080.19 180.068L1091.29 187.929L1102.39 182.688L1113.49 176.865L1124.6 181.715L1135.7 183.978L1146.8 176.513L1157.9 170.573L1169 174.084" stroke="#3265AA" stroke-width="2" stroke-linejoin="round"/>
<path d="M70 136.111L75.5226 128.569L81.0452 121.015L86.5678 124.699L92.0905 118.982L97.6131 117.907L103.136 120.984L108.658 119.461L114.181 120.931L119.704 125.576L125.226 124.191L130.749 122.236L136.271 119.579L141.794 118.226L147.317 125.919L152.839 132.27L158.362 134.722L163.884 134.759L169.407 142.562L174.93 143.053L180.452 151.571L185.975 146.588L191.497 144.816L197.02 150.018L202.543 152.568L208.065 158.341L213.588 149.279L219.111 155.276L224.633 149.555L230.156 144.132L235.678 150.691L241.201 154.541L246.724 155.073L252.246 150.245L257.769 150.603L263.291 143.822L268.814 135.365L274.337 144.625L279.859 145.29L285.382 139.67L290.905 140.03L296.427 148.826L301.95 147.658L307.472 145.922L312.995 150.601L318.518 146.489L324.04 138.761L329.563 144.631L335.085 143.367L340.608 149.728L346.131 144.479L351.653 151.109L357.176 155.733L362.698 154.911L368.221 150.203L373.744 159.093L379.266 156.975L384.789 152.019L390.312 153.151L395.834 162.266L401.357 169.158L406.879 166.687L412.402 157.312L417.925 164.179L423.447 168.27L428.97 175.157L434.492 175.17L440.015 166.559L445.538 159.423L451.06 155.37L456.583 163.568L462.106 155.841L467.628 160.725L473.151 159.906L478.673 168.642L484.196 178.033L489.719 184.496L495.241 181.09L500.764 171.91L506.286 170.414L511.809 164.905L517.332 169.391L522.854 173.479L528.377 169.075L533.9 163.73L539.422 160.848L544.945 154.987L550.467 150.152L555.99 157.672L561.513 155.447L567.035 155.997L572.558 164.651L578.08 168.216L583.603 163.549L589.126 170.271L594.648 161.312L600.171 152.856L605.693 151.429L611.216 149.407L616.739 155.517L622.261 164.353L627.784 156.907L633.307 163.853L638.829 166.026L644.352 171.132L649.874 179.495L655.397 188.237L660.92 184.15L666.442 190.276L671.965 197.744L677.487 189.139L683.01 192.188L688.533 187.869L694.055 178.856L699.578 172.55L705.1 172.546L710.623 168.607L716.146 176.462L721.668 178.229L727.191 175.857L732.714 177.458L738.236 184.653L743.759 187.375L749.281 186.135L754.804 183.502L760.327 184.59L765.849 183.314L771.372 181.104L776.894 176.276L782.417 173.299L787.94 170.644L793.462 172.75L798.985 175.443L804.508 178.212L810.03 169.544L815.553 169.075L821.075 177.871L826.598 187.03L832.121 195.209L837.643 192.319L843.166 193.194L848.688 190.935L854.211 184.639L859.734 182.337L865.256 175.692L870.779 175.566L876.301 178.069L881.824 176.965L887.347 168.437L892.869 174.258L898.392 179.525L903.915 181.903L909.437 188.62L914.96 197.289L920.482 195.457L926.005 189L931.528 179.893L937.05 174.908L942.573 169.366L948.095 173.347L953.618 170.614L959.141 173.682L964.663 176.453L970.186 182.47L975.709 182.276L981.231 177.307L986.754 181.448L992.276 183.932L997.799 175.221L1003.32 184.969L1008.84 179.179L1014.37 178.29L1019.89 173.849L1025.41 170.283L1030.93 162.829L1036.46 153.581L1041.98 153.793L1047.5 152.4L1053.03 151.315L1058.55 151.813L1064.07 159.472L1069.59 160.32L1075.12 169.594L1080.64 162.574L1086.16 171.527L1091.68 166.424L1097.21 158.42L1102.73 150.174L1108.25 156.469L1113.77 153.639L1119.3 144.256L1124.82 137.253L1130.34 144.944L1135.86 135.342L1141.39 133.651L1146.91 130.614L1152.43 137.76L1157.95 130.819L1163.48 124.658L1169 125.869" stroke="#E9702F" stroke-width="2" stroke-linejoin="round"/>
<path d="M70 132.485L73.6756 130.755L77.3512 128.955L81.0268 130.999L84.7023 132.417L88.3779 134.031L92.0535 130.219L95.7291 126.25L99.4047 129.04L103.08 128.126L106.756 124.014L110.431 120.276L114.107 120.269L117.783 117.907L121.458 119.482L125.134 119.878L128.809 118.119L132.485 121.611L136.161 120.361L139.836 118.206L143.512 120.246L147.187 122.966L150.863 127.022L154.538 129.819L158.214 133.437L161.89 136.83L165.565 136.096L169.241 133.687L172.916 133.752L176.592 133.263L180.268 132.929L183.943 130.856L187.619 127.972L191.294 128.421L194.97 125.488L198.645 122.568L202.321 126.757L205.997 128.971L209.672 125.28L213.348 122.934L217.023 124.789L220.699 125.486L224.375 127.114L228.05 127.155L231.726 131.302L235.401 134.648L239.077 135.803L242.753 139.696L246.428 142.559L250.104 138.921L253.779 135.724L257.455 136.332L261.13 132.904L264.806 132.832L268.482 130.791L272.157 129.749L275.833 133.33L279.508 137.464L283.184 141.796L286.86 143.44L290.535 144.922L294.211 144.954L297.886 143.674L301.562 143.374L305.237 146.263L308.913 148.837L312.589 144.693L316.264 146.744L319.94 143.865L323.615 142.176L327.291 138.44L330.967 138.354L334.642 137.417L338.318 141.111L341.993 142.577L345.669 142.715L349.344 140.375L353.02 143.21L356.696 145.384L360.371 148.879L364.047 148.354L367.722 145.885L371.398 141.71L375.074 140.424L378.749 136.025L382.425 137.458L386.1 134.898L389.776 137.378L393.452 141.168L397.127 144.799L400.803 147.578L404.478 147.414L408.154 143.707L411.829 146.285L415.505 147.6L419.181 144.524L422.856 148.6L426.532 150.079L430.207 146.777L433.883 149.049L437.559 145.216L441.234 149.29L444.91 147.553L448.585 150.933L452.261 149.865L455.936 151.766L459.612 151.844L463.288 147.588L466.963 148.076L470.639 145.955L474.314 144.201L477.99 140.997L481.666 142.576L485.341 138.898L489.017 142.669L492.692 141.736L496.368 138.308L500.043 135.195L503.719 134.612L507.395 138.731L511.07 134.956L514.746 134.033L518.421 130.543L522.097 128.35L525.773 128.221L529.448 132.302L533.124 129.109L536.799 129.464L540.475 127.349L544.15 130.523L547.826 126.134L551.502 122.379L555.177 124.978L558.853 125.93L562.528 128.162L566.204 126.416L569.88 123.325L573.555 127.691L577.231 123.992L580.906 121.403L584.582 124.918L588.258 122.828L591.933 121.928L595.609 125.247L599.284 127.593L602.96 127.55L606.635 129.665L610.311 126.315L613.987 127.827L617.662 131.685L621.338 132.286L625.013 134.014L628.689 135.628L632.365 136.456L636.04 137.532L639.716 139.576L643.391 139.472L647.067 138.158L650.742 133.905L654.418 137.466L658.094 137.201L661.769 140.373L665.445 140.498L669.12 138.687L672.796 137.343L676.472 138.968L680.147 140.176L683.823 143.563L687.498 140.75L691.174 140.11L694.85 139.683L698.525 142.873L702.201 143.285L705.876 146.029L709.552 145.016L713.227 147.459L716.903 146.095L720.579 147.956L724.254 148.597L727.93 150.617L731.605 151.96L735.281 150.645L738.957 152.3L742.632 156.487L746.308 159.825L749.983 164.029L753.659 162.037L757.334 159.108L761.01 160.179L764.686 161.236L768.361 164.129L772.037 167.168L775.712 164.029L779.388 161.922L783.064 165.336L786.739 169.579L790.415 166.922L794.09 169.211L797.766 169.335L801.441 171.242L805.117 168.504L808.793 168.881L812.468 166.481L816.144 164.28L819.819 164.988L823.495 160.713L827.171 157.214L830.846 159.155L834.522 155.607L838.197 152.762L841.873 153.761L845.549 157.188L849.224 158.127L852.9 157.811L856.575 159.412L860.251 162.842L863.926 161.515L867.602 162.379L871.278 160L874.953 161.169L878.629 158.114L882.304 162.371L885.98 158.416L889.656 159.76L893.331 160.365L897.007 158.986L900.682 160.396L904.358 162.011L908.033 164.666L911.709 167.795L915.385 167.828L919.06 169.208L922.736 171.686L926.411 175.015L930.087 171.101L933.763 171.932L937.438 170.089L941.114 174.335L944.789 176.684L948.465 178.613L952.14 182.849L955.816 180.872L959.492 184.001L963.167 180.488L966.843 178.12L970.518 177.842L974.194 174.164L977.87 176.983L981.545 181.11L985.221 181.224L988.896 180.101L992.572 178.597L996.247 181.018L999.923 176.931L1003.6 180.565L1007.27 179.471L1010.95 180.222L1014.63 179.58L1018.3 175.193L1021.98 175.152L1025.65 173.563L1029.33 177.788L1033 177.119L1036.68 176.014L1040.35 180.147L1044.03 182.68L1047.71 180.69L1051.38 182.406L1055.06 186.365L1058.73 189.385L1062.41 186.803L1066.08 191.148L1069.76 193.122L1073.43 195.303L1077.11 196.047L1080.79 196.614L1084.46 195.594L1088.14 193.365L1091.81 190.123L1095.49 192.525L1099.16 191.4L1102.84 188.189L1106.52 187.433L1110.19 185.965L1113.87 184.544L1117.54 187.432L1121.22 187.52L1124.89 191.635L1128.57 187.455L1132.24 189.765L1135.92 191.025L1139.6 193.833L1143.27 192.542L1146.95 196.955L1150.62 196.164L1154.3 194.923L1157.97 197.744L1161.65 195.553L1165.32 192.924L1169 188.563" stroke="#4CB4E6" stroke-width="2" stroke-linejoin="round"/>
<path d="M70 136.519L77.3758 134.25L84.7517 139.611L92.1275 134.043L99.5034 128.641L106.879 133.177L114.255 128.695L121.631 122.954L129.007 122.498L136.383 123.986L143.758 117.907L151.134 121.713L158.51 123.897L165.886 127.951L173.262 129.483L180.638 126.426L188.013 129.898L195.389 136.12L202.765 141.463L210.141 144.852L217.517 144.108L224.893 141.531L232.268 143.408L239.644 146.836L247.02 148.841L254.396 144.806L261.772 146.047L269.148 141.997L276.523 145.55L283.899 143.889L291.275 149.324L298.651 144.208L306.027 149.087L313.403 152.748L320.779 156.932L328.154 158.875L335.53 160.237L342.906 162.125L350.282 162.85L357.658 156.655L365.034 157.939L372.409 160.712L379.785 157.941L387.161 154.397L394.537 157.42L401.913 158.805L409.289 164.196L416.664 170.229L424.04 166.909L431.416 165.169L438.792 165.702L446.168 159.94L453.544 161.177L460.919 166.572L468.295 172.312L475.671 168.278L483.047 173.932L490.423 167.898L497.799 171.646L505.174 171.342L512.55 172.081L519.926 171.737L527.302 168.071L534.678 161.845L542.054 158.412L549.43 162.398L556.805 164.12L564.181 159.189L571.557 162.594L578.933 164.363L586.309 162.661L593.685 167.853L601.06 163.408L608.436 168.405L615.812 170.474L623.188 170.134L630.564 163.959L637.94 158.809L645.315 156.056L652.691 155.393L660.067 160.068L667.443 155.211L674.819 153.925L682.195 147.829L689.57 143.149L696.946 148.999L704.322 147.016L711.698 149.372L719.074 154.629L726.45 159.959L733.825 165.574L741.201 166.433L748.577 165.636L755.953 162.115L763.329 161.454L770.705 165.495L778.081 164.461L785.456 167.503L792.832 164.911L800.208 168.76L807.584 173.13L814.96 169.031L822.336 170.465L829.711 172.817L837.087 172.234L844.463 177.54L851.839 181.996L859.215 180.657L866.591 177.666L873.966 179.417L881.342 177.431L888.718 177.37L896.094 180.717L903.47 175.184L910.846 174.915L918.221 178.231L925.597 181.961L932.973 180.632L940.349 181.151L947.725 184.603L955.101 184.779L962.477 183.999L969.852 178.01L977.228 182.258L984.604 188.367L991.98 189.044L999.356 190.976L1006.73 196.511L1014.11 197.744L1021.48 196.254L1028.86 190.155L1036.23 192.323L1043.61 187.786L1050.99 183.167L1058.36 177.794L1065.74 176.355L1073.11 179.378L1080.49 183.779L1087.87 178.149L1095.24 172.69L1102.62 174.974L1109.99 179.134L1117.37 183.795L1124.74 178.974L1132.12 184.466L1139.5 183.142L1146.87 187.576L1154.25 184.533L1161.62 183.565L1169 179.762" stroke="#A9264F" stroke-width="2" stroke-linejoin="round"/>
</svg>
