<svg width="222" height="38" viewBox="0 0 222 38" fill="none" xmlns="http://www.w3.org/2000/svg">
<path d="M54.55 11.175V12.275C54.55 12.675 54.375 12.8 54.025 12.8H52.6V25.9H53.95C54.3 25.9 54.475 26.125 54.475 26.425V27.5C54.475 27.8 54.35 28 54.025 28H48.075C47.75 28 47.575 27.8 47.575 27.525V26.4C47.575 26.05 47.725 25.9 48.075 25.9H49.4V12.8H47.95C47.6 12.8 47.45 12.625 47.45 12.3V11.2C47.45 10.925 47.6 10.7 47.9 10.7H54.025C54.375 10.7 54.55 10.925 54.55 11.175ZM68.5086 20.025V27.35C68.5086 27.775 68.3586 28 67.9086 28H66.1086C65.6586 28 65.5086 27.775 65.5086 27.35V20.55C65.5086 19.175 65.1336 18.2 63.6086 18.2C62.6336 18.2 61.4336 18.725 60.6586 19.4V27.375C60.6586 27.8 60.4836 28 60.0586 28H58.2336C57.8586 28 57.6336 27.8 57.6336 27.4V16.5C57.6336 16.1 57.8086 15.875 58.2586 15.875H59.8836C60.2336 15.875 60.4586 15.975 60.4836 16.35L60.5086 17C61.6586 16.075 63.1086 15.55 64.5586 15.55C67.3586 15.55 68.5086 17.3 68.5086 20.025ZM82.4223 10.625V27.375C82.4223 27.8 82.1723 28 81.8723 28H80.2473C79.8473 28 79.6723 27.8 79.6473 27.5L79.5973 26.825C78.8973 27.625 77.4973 28.3 76.1973 28.3C72.5723 28.3 70.9223 25.425 70.9223 22.075C70.9223 18.575 72.8723 15.525 76.3973 15.525C77.5223 15.525 78.6973 15.975 79.3973 16.7V11.075C79.3973 10.625 79.5223 10.45 79.9223 10.4L82.0223 10.125C82.3223 10.125 82.4223 10.25 82.4223 10.625ZM79.3973 24.6V19.175C78.8973 18.5 77.9473 17.95 76.9973 17.95C74.9723 17.95 74.0723 19.85 74.0723 21.9C74.0723 23.95 74.8223 25.85 76.8473 25.85C77.7723 25.85 78.8973 25.225 79.3973 24.6ZM91.5883 25.875C92.6383 25.875 93.6883 25.65 94.6633 25.275C94.9383 25.175 95.1883 25.125 95.2883 25.5L95.6383 26.775C95.6633 26.9 95.6883 27 95.6883 27.075C95.6883 27.25 95.5883 27.375 95.2883 27.5C94.0633 28.05 92.3883 28.3 91.0883 28.3C87.1633 28.3 84.8383 25.8 84.8383 21.9C84.8383 18.15 87.3133 15.55 91.0383 15.55C92.5633 15.55 93.8133 16.125 94.6883 17.05C95.8383 18.25 96.1633 19.825 96.1633 21.525V21.9C96.1633 22.5 95.9633 22.625 95.3383 22.625H88.0133C88.2133 24.55 89.6133 25.875 91.5883 25.875ZM88.0633 20.65H93.1883C93.1883 20.6 93.1883 20.425 93.1883 20.375C93.1383 19.075 92.3883 17.875 90.8633 17.875C89.2383 17.875 88.2633 19.175 88.0633 20.65ZM109.129 27.675C109.129 27.85 108.979 28 108.704 28H106.204C105.704 28 105.504 27.85 105.329 27.55L102.979 23.725H102.954L100.554 27.5C100.329 27.85 100.079 28 99.6045 28H97.4295C97.2295 28 97.1545 27.875 97.1545 27.7C97.1545 27.6 97.2045 27.475 97.2795 27.375L101.529 21.725L97.8295 16.425C97.7795 16.35 97.7545 16.275 97.7545 16.2C97.7545 16.025 97.8795 15.875 98.1045 15.875H100.654C101.029 15.875 101.279 16.025 101.429 16.275L103.404 19.425H103.429L105.479 16.3C105.679 16 105.879 15.875 106.204 15.875H108.429C108.654 15.875 108.754 16 108.754 16.15C108.754 16.25 108.729 16.325 108.654 16.4L104.829 21.375L109.004 27.325C109.079 27.45 109.129 27.575 109.129 27.675ZM127.157 26.6V27.55C127.157 27.85 127.032 28 126.657 28H117.932C117.507 28 117.407 27.9 117.407 27.475V11.275C117.407 10.925 117.532 10.775 117.882 10.775H126.682C127.057 10.775 127.107 10.95 127.082 11.25L126.982 12.2C126.957 12.55 126.732 12.6 126.307 12.6H119.732V18.075H125.607C125.957 18.075 126.107 18.225 126.107 18.525V19.425C126.107 19.775 125.982 19.875 125.632 19.875H119.732V26.175H126.632C127.007 26.175 127.157 26.3 127.157 26.6ZM132.051 10.65V27.475C132.051 27.825 131.901 28 131.601 28H130.376C130.076 28 129.926 27.85 129.926 27.5V10.9C129.926 10.55 130.001 10.45 130.301 10.4C131.601 10.225 131.626 10.225 131.676 10.225C131.901 10.225 132.051 10.325 132.051 10.65ZM145.37 21.15V21.575C145.37 22.15 145.27 22.275 144.62 22.275H136.945C137.02 24.65 138.37 26.5 140.895 26.5C141.92 26.5 143.045 26.3 143.895 25.975C144.12 25.9 144.37 25.85 144.445 26.15L144.72 27.075C144.795 27.3 144.67 27.4 144.445 27.525C143.37 28.025 141.77 28.25 140.62 28.25C136.77 28.25 134.72 25.725 134.72 21.95C134.72 18.375 136.945 15.65 140.545 15.65C141.97 15.65 143.12 16.175 143.945 17.025C144.945 18.05 145.37 19.525 145.37 21.15ZM136.995 20.825H143.27V20.475C143.27 18.775 142.345 17.3 140.445 17.3C138.37 17.3 137.195 18.975 136.995 20.825ZM156.599 15.925C156.999 15.925 157.049 16.1 156.949 16.375L152.799 27.6C152.674 27.9 152.499 28 152.224 28H151.124C150.799 28 150.624 27.875 150.524 27.6L146.424 16.375C146.324 16.1 146.474 15.925 146.774 15.925H148.149C148.524 15.925 148.674 16.025 148.749 16.275L150.999 23.05C151.324 24.05 151.624 24.95 151.799 25.525H151.824C151.974 25 152.274 24.025 152.574 23.125L154.824 16.325C154.924 16.025 155.099 15.925 155.449 15.925H156.599ZM169.882 26.825V27.675C169.882 27.925 169.757 28 169.507 28H168.457C167.357 28 166.832 27.15 166.832 26.15H166.782C166.207 27.25 164.557 28.25 163.032 28.25C159.582 28.25 158.057 25.325 158.057 22.175C158.057 18 160.532 15.65 163.382 15.65C164.632 15.65 165.982 16.175 166.732 17.175L166.757 16.35C166.757 16.05 166.957 15.925 167.232 15.925H168.357C168.657 15.925 168.807 16.075 168.807 16.4V25.15C168.807 25.725 168.832 26.125 168.932 26.275C169.032 26.45 169.157 26.5 169.357 26.5H169.532C169.757 26.5 169.882 26.55 169.882 26.825ZM166.682 23.95V19.15C166.082 18.025 164.857 17.35 163.657 17.35C161.732 17.35 160.282 19.05 160.282 22.025C160.282 24.775 161.557 26.475 163.357 26.475C164.957 26.475 166.232 25.2 166.682 23.95ZM175.359 26.075C175.634 26.375 176.084 26.575 176.734 26.575C177.309 26.575 177.909 26.4 178.309 26.275C178.484 26.2 178.684 26.275 178.759 26.5L178.959 27.3C179.009 27.55 178.934 27.675 178.634 27.8C178.059 28.025 177.159 28.25 176.309 28.25C175.234 28.25 174.159 27.95 173.584 27.325C172.859 26.525 172.809 25.525 172.809 23.975V17.425H171.434C171.109 17.425 171.059 17.375 171.059 17.05V16.275C171.059 16.025 171.159 15.925 171.384 15.925H172.809V13.075C172.809 12.725 172.909 12.625 173.234 12.575L174.459 12.4C174.484 12.4 174.534 12.4 174.559 12.4C174.809 12.4 174.934 12.575 174.934 12.85V15.925H177.884C178.109 15.925 178.234 15.975 178.234 16.25V17.1C178.234 17.35 178.109 17.425 177.859 17.425H174.934V24.175C174.934 25 174.984 25.65 175.359 26.075ZM190.755 21.15V21.575C190.755 22.15 190.655 22.275 190.005 22.275H182.33C182.405 24.65 183.755 26.5 186.28 26.5C187.305 26.5 188.43 26.3 189.28 25.975C189.505 25.9 189.755 25.85 189.83 26.15L190.105 27.075C190.18 27.3 190.055 27.4 189.83 27.525C188.755 28.025 187.155 28.25 186.005 28.25C182.155 28.25 180.105 25.725 180.105 21.95C180.105 18.375 182.33 15.65 185.93 15.65C187.355 15.65 188.505 16.175 189.33 17.025C190.33 18.05 190.755 19.525 190.755 21.15ZM182.38 20.825H188.655V20.475C188.655 18.775 187.73 17.3 185.83 17.3C183.755 17.3 182.58 18.975 182.38 20.825Z" fill="white"/>
<path d="M34.4374 2.375H32.0624C31.406 2.375 30.8749 2.90613 30.8749 3.5625C30.8749 4.03217 31.1528 4.42899 31.5479 4.62164L26.8576 8.5303C24.463 5.50951 20.7702 3.5625 16.6249 3.5625C9.4222 3.5625 3.5624 9.4223 3.5624 16.625C3.5624 17.3137 3.63184 17.985 3.73505 18.6452L2.90371 19.1995C2.35751 19.5636 2.21023 20.3 2.57436 20.8462C2.93618 21.3912 3.67373 21.5374 4.22109 21.1755L4.36207 21.0816C6.18963 26.093 10.9891 29.6875 16.6249 29.6875C23.8276 29.6875 29.6874 23.8277 29.6874 16.625C29.6874 14.4237 29.1348 12.3508 28.169 10.5292L33.3119 6.24481C33.4497 6.74811 33.89 7.125 34.4374 7.125C35.0938 7.125 35.6249 6.59387 35.6249 5.9375V3.5625C35.6249 2.90613 35.0938 2.375 34.4374 2.375ZM5.9374 16.625C5.9374 10.7316 10.7315 5.9375 16.6249 5.9375C20.0682 5.9375 23.1274 7.58097 25.0833 10.117L21.2102 16.894L17.5526 12.3203C17.2743 11.9747 16.8313 11.8147 16.3906 11.8982C15.9558 11.9852 15.6056 12.3087 15.4826 12.7366L13.8603 18.4167L11.7056 14.8264C11.5386 14.548 11.2649 14.3497 10.9483 14.279C10.6317 14.2071 10.3001 14.2697 10.0287 14.4495L5.96444 17.159C5.95559 16.9809 5.9374 16.8053 5.9374 16.625ZM16.6249 27.3125C11.8091 27.3125 7.73076 24.1099 6.39902 19.7236L10.3094 17.1167L13.2317 21.9861C13.4486 22.3468 13.8359 22.5625 14.2499 22.5625C14.3009 22.5625 14.3531 22.559 14.4053 22.5521C14.8738 22.4906 15.2623 22.1566 15.3922 21.7009L17.1352 15.601L20.4472 19.7422C20.6942 20.0483 21.0595 20.2177 21.4677 20.184C21.8596 20.1539 22.211 19.9301 22.4058 19.5891L26.4724 12.4717C27.0131 13.7492 27.3124 15.1527 27.3124 16.625C27.3124 22.5184 22.5183 27.3125 16.6249 27.3125Z" fill="white"/>
<path d="M30.5268 25.2856C30.1501 24.9089 29.591 24.8543 29.143 25.0893L28.5146 24.4609C27.4503 26.0705 26.07 27.4508 24.4604 28.5151L25.0888 29.1435C24.8538 29.5915 24.9084 30.1506 25.2851 30.5273L29.2976 34.5398C29.9968 35.2402 30.9281 35.6252 31.9184 35.6252C32.9076 35.6252 33.8388 35.2402 34.5393 34.5398C35.9842 33.0937 35.9842 30.7418 34.5393 29.2981L30.5268 25.2856Z" fill="#E0044E"/>
</svg>
