<svg width="222" height="38" viewBox="0 0 222 38" fill="none" xmlns="http://www.w3.org/2000/svg">
<path d="M54.55 11.175V12.275C54.55 12.675 54.375 12.8 54.025 12.8H52.6V25.9H53.95C54.3 25.9 54.475 26.125 54.475 26.425V27.5C54.475 27.8 54.35 28 54.025 28H48.075C47.75 28 47.575 27.8 47.575 27.525V26.4C47.575 26.05 47.725 25.9 48.075 25.9H49.4V12.8H47.95C47.6 12.8 47.45 12.625 47.45 12.3V11.2C47.45 10.925 47.6 10.7 47.9 10.7H54.025C54.375 10.7 54.55 10.925 54.55 11.175ZM68.5086 20.025V27.35C68.5086 27.775 68.3586 28 67.9086 28H66.1086C65.6586 28 65.5086 27.775 65.5086 27.35V20.55C65.5086 19.175 65.1336 18.2 63.6086 18.2C62.6336 18.2 61.4336 18.725 60.6586 19.4V27.375C60.6586 27.8 60.4836 28 60.0586 28H58.2336C57.8586 28 57.6336 27.8 57.6336 27.4V16.5C57.6336 16.1 57.8086 15.875 58.2586 15.875H59.8836C60.2336 15.875 60.4586 15.975 60.4836 16.35L60.5086 17C61.6586 16.075 63.1086 15.55 64.5586 15.55C67.3586 15.55 68.5086 17.3 68.5086 20.025ZM82.4223 10.625V27.375C82.4223 27.8 82.1723 28 81.8723 28H80.2473C79.8473 28 79.6723 27.8 79.6473 27.5L79.5973 26.825C78.8973 27.625 77.4973 28.3 76.1973 28.3C72.5723 28.3 70.9223 25.425 70.9223 22.075C70.9223 18.575 72.8723 15.525 76.3973 15.525C77.5223 15.525 78.6973 15.975 79.3973 16.7V11.075C79.3973 10.625 79.5223 10.45 79.9223 10.4L82.0223 10.125C82.3223 10.125 82.4223 10.25 82.4223 10.625ZM79.3973 24.6V19.175C78.8973 18.5 77.9473 17.95 76.9973 17.95C74.9723 17.95 74.0723 19.85 74.0723 21.9C74.0723 23.95 74.8223 25.85 76.8473 25.85C77.7723 25.85 78.8973 25.225 79.3973 24.6ZM91.5883 25.875C92.6383 25.875 93.6883 25.65 94.6633 25.275C94.9383 25.175 95.1883 25.125 95.2883 25.5L95.6383 26.775C95.6633 26.9 95.6883 27 95.6883 27.075C95.6883 27.25 95.5883 27.375 95.2883 27.5C94.0633 28.05 92.3883 28.3 91.0883 28.3C87.1633 28.3 84.8383 25.8 84.8383 21.9C84.8383 18.15 87.3133 15.55 91.0383 15.55C92.5633 15.55 93.8133 16.125 94.6883 17.05C95.8383 18.25 96.1633 19.825 96.1633 21.525V21.9C96.1633 22.5 95.9633 22.625 95.3383 22.625H88.0133C88.2133 24.55 89.6133 25.875 91.5883 25.875ZM88.0633 20.65H93.1883C93.1883 20.6 93.1883 20.425 93.1883 20.375C93.1383 19.075 92.3883 17.875 90.8633 17.875C89.2383 17.875 88.2633 19.175 88.0633 20.65ZM109.129 27.675C109.129 27.85 108.979 28 108.704 28H106.204C105.704 28 105.504 27.85 105.329 27.55L102.979 23.725H102.954L100.554 27.5C100.329 27.85 100.079 28 99.6045 28H97.4295C97.2295 28 97.1545 27.875 97.1545 27.7C97.1545 27.6 97.2045 27.475 97.2795 27.375L101.529 21.725L97.8295 16.425C97.7795 16.35 97.7545 16.275 97.7545 16.2C97.7545 16.025 97.8795 15.875 98.1045 15.875H100.654C101.029 15.875 101.279 16.025 101.429 16.275L103.404 19.425H103.429L105.479 16.3C105.679 16 105.879 15.875 106.204 15.875H108.429C108.654 15.875 108.754 16 108.754 16.15C108.754 16.25 108.729 16.325 108.654 16.4L104.829 21.375L109.004 27.325C109.079 27.45 109.129 27.575 109.129 27.675ZM120.602 26.975V27.65C120.602 27.9 120.527 28 120.177 28H111.827C111.452 28 111.377 27.925 111.377 27.55V11.25C111.377 10.925 111.477 10.825 111.802 10.825H120.177C120.502 10.825 120.552 10.95 120.527 11.225L120.452 11.85C120.427 12.15 120.252 12.175 119.877 12.175H113.127V18.225H119.077C119.377 18.225 119.502 18.325 119.502 18.6V19.2C119.502 19.5 119.402 19.575 119.102 19.575H113.127V26.65H120.152C120.502 26.65 120.602 26.725 120.602 26.975ZM124.959 10.675V27.55C124.959 27.85 124.834 28 124.559 28H123.759C123.484 28 123.359 27.85 123.359 27.55V10.85C123.359 10.55 123.409 10.45 123.684 10.4C124.584 10.275 124.634 10.275 124.659 10.275C124.859 10.275 124.959 10.425 124.959 10.675ZM137.964 21.35C137.964 21.9 137.889 22.025 137.264 22.025H129.339C129.339 24.675 130.664 26.875 133.539 26.875C134.614 26.875 135.914 26.625 136.664 26.3C136.864 26.2 137.039 26.225 137.089 26.475L137.214 27.05C137.264 27.275 137.239 27.425 136.989 27.525C135.989 28 134.439 28.225 133.389 28.225C129.564 28.225 127.689 25.65 127.689 21.95C127.689 18.475 129.814 15.7 133.314 15.7C136.264 15.7 137.964 17.95 137.964 20.875V21.35ZM136.364 20.4C136.364 18.5 135.364 16.925 133.264 16.925C130.914 16.925 129.614 18.825 129.389 20.9H136.339C136.364 20.725 136.364 20.575 136.364 20.4ZM148.025 15.95H148.775C149 15.95 149.15 16.075 149.075 16.325L145.05 27.65C144.95 27.9 144.8 28 144.575 28H143.6C143.3 28 143.15 27.875 143.075 27.65L139.1 16.35C139.025 16.15 139.15 15.95 139.425 15.95H140.3C140.65 15.95 140.75 16.025 140.825 16.225L144.175 26.125H144.225L147.5 16.3C147.575 16.05 147.75 15.95 148.025 15.95ZM161.694 27.125V27.75C161.694 27.95 161.619 28 161.394 28H160.444C159.469 28 159.044 27.175 159.044 26.2V25.875C158.544 27.1 156.844 28.225 155.194 28.225C151.794 28.225 150.319 25.275 150.319 22.175C150.319 18.075 152.694 15.7 155.594 15.7C156.794 15.7 158.194 16.2 159.019 17.275L159.044 16.35C159.044 16.05 159.219 15.95 159.494 15.95H160.244C160.519 15.95 160.619 16.1 160.619 16.4V25.175C160.619 25.875 160.619 26.35 160.719 26.55C160.819 26.775 160.994 26.85 161.244 26.85H161.419C161.619 26.85 161.694 26.9 161.694 27.125ZM159.019 23.85V19.05C158.369 17.7 157.019 16.95 155.694 16.95C153.544 16.95 151.969 18.875 151.969 22.075C151.969 25.25 153.544 26.875 155.319 26.875C157.144 26.875 158.519 25.375 159.019 23.85ZM169.657 26.7C169.857 26.625 170.007 26.675 170.032 26.85L170.157 27.475C170.207 27.675 170.157 27.75 169.907 27.85C169.432 28.025 168.607 28.225 167.857 28.225C166.882 28.225 165.832 27.95 165.282 27.375C164.582 26.65 164.532 25.625 164.532 24.25V17.125H163.057C162.832 17.125 162.782 17.075 162.782 16.875V16.2C162.782 15.975 162.832 15.95 163.007 15.95H164.532V13.025C164.532 12.725 164.582 12.625 164.857 12.575L165.732 12.45H165.832C166.032 12.45 166.132 12.6 166.132 12.85V15.95H169.157C169.357 15.95 169.432 16 169.432 16.225V16.875C169.432 17.075 169.357 17.125 169.132 17.125H166.132V24.5C166.132 25.375 166.207 26.075 166.632 26.5C166.932 26.8 167.407 26.975 168.107 26.975C168.682 26.975 169.307 26.825 169.657 26.7ZM181.592 21.35C181.592 21.9 181.517 22.025 180.892 22.025H172.967C172.967 24.675 174.292 26.875 177.167 26.875C178.242 26.875 179.542 26.625 180.292 26.3C180.492 26.2 180.667 26.225 180.717 26.475L180.842 27.05C180.892 27.275 180.867 27.425 180.617 27.525C179.617 28 178.067 28.225 177.017 28.225C173.192 28.225 171.317 25.65 171.317 21.95C171.317 18.475 173.442 15.7 176.942 15.7C179.892 15.7 181.592 17.95 181.592 20.875V21.35ZM179.992 20.4C179.992 18.5 178.992 16.925 176.892 16.925C174.542 16.925 173.242 18.825 173.017 20.9H179.967C179.992 20.725 179.992 20.575 179.992 20.4Z" fill="white"/>
<path d="M34.4374 2.375H32.0624C31.406 2.375 30.8749 2.90613 30.8749 3.5625C30.8749 4.03217 31.1528 4.42899 31.5479 4.62164L26.8576 8.5303C24.463 5.50951 20.7702 3.5625 16.6249 3.5625C9.4222 3.5625 3.5624 9.4223 3.5624 16.625C3.5624 17.3137 3.63184 17.985 3.73505 18.6452L2.90371 19.1995C2.35751 19.5636 2.21023 20.3 2.57436 20.8462C2.93618 21.3912 3.67373 21.5374 4.22109 21.1755L4.36207 21.0816C6.18963 26.093 10.9891 29.6875 16.6249 29.6875C23.8276 29.6875 29.6874 23.8277 29.6874 16.625C29.6874 14.4237 29.1348 12.3508 28.169 10.5292L33.3119 6.24481C33.4497 6.74811 33.89 7.125 34.4374 7.125C35.0938 7.125 35.6249 6.59387 35.6249 5.9375V3.5625C35.6249 2.90613 35.0938 2.375 34.4374 2.375ZM5.9374 16.625C5.9374 10.7316 10.7315 5.9375 16.6249 5.9375C20.0682 5.9375 23.1274 7.58097 25.0833 10.117L21.2102 16.894L17.5526 12.3203C17.2743 11.9747 16.8313 11.8147 16.3906 11.8982C15.9558 11.9852 15.6056 12.3087 15.4826 12.7366L13.8603 18.4167L11.7056 14.8264C11.5386 14.548 11.2649 14.3497 10.9483 14.279C10.6317 14.2071 10.3001 14.2697 10.0287 14.4495L5.96444 17.159C5.95559 16.9809 5.9374 16.8053 5.9374 16.625ZM16.6249 27.3125C11.8091 27.3125 7.73076 24.1099 6.39902 19.7236L10.3094 17.1167L13.2317 21.9861C13.4486 22.3468 13.8359 22.5625 14.2499 22.5625C14.3009 22.5625 14.3531 22.559 14.4053 22.5521C14.8738 22.4906 15.2623 22.1566 15.3922 21.7009L17.1352 15.601L20.4472 19.7422C20.6942 20.0483 21.0595 20.2177 21.4677 20.184C21.8596 20.1539 22.211 19.9301 22.4058 19.5891L26.4724 12.4717C27.0131 13.7492 27.3124 15.1527 27.3124 16.625C27.3124 22.5184 22.5183 27.3125 16.6249 27.3125Z" fill="white"/>
<path d="M30.5268 25.2856C30.1501 24.9089 29.591 24.8543 29.143 25.0893L28.5146 24.4609C27.4503 26.0705 26.07 27.4508 24.4604 28.5151L25.0888 29.1435C24.8538 29.5915 24.9084 30.1506 25.2851 30.5273L29.2976 34.5398C29.9968 35.2402 30.9281 35.6252 31.9184 35.6252C32.9076 35.6252 33.8388 35.2402 34.5393 34.5398C35.9842 33.0937 35.9842 30.7418 34.5393 29.2981L30.5268 25.2856Z" fill="#E0044E"/>
</svg>
