<svg width="64" height="64" viewBox="0 0 64 64" fill="none" xmlns="http://www.w3.org/2000/svg">
<g filter="url(#filter0_d_1068_33609)">
<path d="M12 22C12 16.4772 16.4772 12 22 12H42C47.5228 12 52 16.4772 52 22V42C52 47.5228 47.5228 52 42 52H22C16.4772 52 12 47.5228 12 42V22Z" fill="#E22F6C" fill-opacity="0.2" shape-rendering="crispEdges"/>
<path d="M37.8333 38.6668H26.1667C25.7246 38.6668 25.3007 38.4912 24.9882 38.1787C24.6756 37.8661 24.5 37.4422 24.5 37.0002V27.0002C24.5 26.5581 24.6756 26.1342 24.9882 25.8217C25.3007 25.5091 25.7246 25.3335 26.1667 25.3335H34.5C34.942 25.3335 35.366 25.5091 35.6785 25.8217C35.9911 26.1342 36.1667 26.5581 36.1667 27.0002V27.8335M37.8333 38.6668C37.3913 38.6668 36.9674 38.4912 36.6548 38.1787C36.3423 37.8661 36.1667 37.4422 36.1667 37.0002V27.8335M37.8333 38.6668C38.2754 38.6668 38.6993 38.4912 39.0118 38.1787C39.3244 37.8661 39.5 37.4422 39.5 37.0002V29.5002C39.5 29.0581 39.3244 28.6342 39.0118 28.3217C38.6993 28.0091 38.2754 27.8335 37.8333 27.8335H36.1667M32.8333 25.3335H29.5M27.8333 35.3335H32.8333M27.8333 28.6668H32.8333V32.0002H27.8333V28.6668Z" stroke="#E42F6C" stroke-width="1.66667" stroke-linecap="round" stroke-linejoin="round"/>
</g>
<defs>
<filter id="filter0_d_1068_33609" x="0" y="0" width="64" height="64" filterUnits="userSpaceOnUse" color-interpolation-filters="sRGB">
<feFlood flood-opacity="0" result="BackgroundImageFix"/>
<feColorMatrix in="SourceAlpha" type="matrix" values="0 0 0 0 0 0 0 0 0 0 0 0 0 0 0 0 0 0 127 0" result="hardAlpha"/>
<feOffset/>
<feGaussianBlur stdDeviation="6"/>
<feComposite in2="hardAlpha" operator="out"/>
<feColorMatrix type="matrix" values="0 0 0 0 0.886275 0 0 0 0 0.184314 0 0 0 0 0.423529 0 0 0 0.3 0"/>
<feBlend mode="normal" in2="BackgroundImageFix" result="effect1_dropShadow_1068_33609"/>
<feBlend mode="normal" in="SourceGraphic" in2="effect1_dropShadow_1068_33609" result="shape"/>
</filter>
</defs>
</svg>
