<svg width="22" height="22" viewBox="0 0 22 22" fill="none" xmlns="http://www.w3.org/2000/svg">
<g clip-path="url(#clip0_384_10401)">
<path d="M17.4167 5.5V2.75C17.4167 1.23383 16.1828 0 14.6667 0H4.58333C2.05608 0 0 2.05608 0 4.58333V11.9167C0 14.4439 2.05608 16.5 4.58333 16.5V17.4167C4.58333 19.9439 6.63942 22 9.16667 22H17.4167C19.9439 22 22 19.9439 22 17.4167V10.0833C22 7.55608 19.9439 5.5 17.4167 5.5ZM9.383 5.5L15.5247 2.42917C15.5623 2.52908 15.5824 2.63725 15.5824 2.75V5.5H9.38208H9.383ZM1.83333 11.9167V4.58333C1.83333 3.06717 3.06717 1.83333 4.58333 1.83333H12.617L7.117 4.58333C5.55408 5.36617 4.58333 6.9355 4.58333 8.68267V14.6667C3.06717 14.6667 1.83333 13.4328 1.83333 11.9167ZM20.1667 17.4167C20.1667 18.9328 18.9328 20.1667 17.4167 20.1667H9.16667C7.6505 20.1667 6.41667 18.9328 6.41667 17.4167V8.68267C6.41667 8.19867 6.54133 7.73667 6.76775 7.33333H17.4167C18.9328 7.33333 20.1667 8.56717 20.1667 10.0833V17.4167ZM18.3333 11C18.3333 11.5069 17.9236 11.9167 17.4167 11.9167H14.6667C14.1597 11.9167 13.75 11.5069 13.75 11C13.75 10.4931 14.1597 10.0833 14.6667 10.0833H17.4167C17.9236 10.0833 18.3333 10.4931 18.3333 11ZM11.9167 10.0833V11.9167C11.9167 12.4227 11.506 12.8333 11 12.8333H9.16667C8.66067 12.8333 8.25 12.4227 8.25 11.9167V10.0833C8.25 9.57733 8.66067 9.16667 9.16667 9.16667H11C11.506 9.16667 11.9167 9.57733 11.9167 10.0833ZM18.3333 16.5C18.3333 17.0069 17.9236 17.4167 17.4167 17.4167H14.6667C14.1597 17.4167 13.75 17.0069 13.75 16.5C13.75 15.9931 14.1597 15.5833 14.6667 15.5833H17.4167C17.9236 15.5833 18.3333 15.9931 18.3333 16.5ZM11.9167 15.5833V17.4167C11.9167 17.9227 11.506 18.3333 11 18.3333H9.16667C8.66067 18.3333 8.25 17.9227 8.25 17.4167V15.5833C8.25 15.0773 8.66067 14.6667 9.16667 14.6667H11C11.506 14.6667 11.9167 15.0773 11.9167 15.5833Z" fill="#CDCDCD"/>
</g>
<defs>
<clipPath id="clip0_384_10401">
<rect width="22" height="22" fill="white"/>
</clipPath>
</defs>
</svg>
