<svg width="18" height="18" viewBox="0 0 18 18" fill="none" xmlns="http://www.w3.org/2000/svg">
<g clip-path="url(#clip0_384_10397)">
<path d="M18 13.5V18H0V13.5C0 12.2595 1.0095 11.25 2.25 11.25H3.85425L5.38875 12.75H2.25C1.836 12.75 1.5 13.086 1.5 13.5V16.5H16.5V13.5C16.5 13.086 16.164 12.75 15.75 12.75H12.6112L14.1458 11.25H15.75C16.9905 11.25 18 12.2595 18 13.5ZM18 1.875V6H15V7.5C15 8.32725 14.3273 9 13.5 9H9.75V11.5845L11.0963 10.239L12.1567 11.2995L9.99075 13.4662C8.5635 14.9753 6.80175 12.03 5.84625 11.2995L6.90675 10.239L8.25075 11.583V8.99925H4.5C3.67275 8.99925 3 8.3265 3 7.49925V5.99925H0V1.875C0 0.8415 0.84075 0 1.875 0H5.625C6.65925 0 7.5 0.8415 7.5 1.875V6H4.5V7.5H13.5V6H10.5V1.875C10.5 0.8415 11.3407 0 12.375 0H16.125C17.1593 0 18 0.8415 18 1.875ZM1.5 4.5H6V1.875C6 1.668 5.83125 1.5 5.625 1.5H1.875C1.66875 1.5 1.5 1.668 1.5 1.875V4.5ZM16.5 1.875C16.5 1.668 16.3312 1.5 16.125 1.5H12.375C12.1687 1.5 12 1.668 12 1.875V4.5H16.5V1.875Z" fill="#CDCDCD"/>
</g>
<defs>
<clipPath id="clip0_384_10397">
<rect width="18" height="18" fill="white"/>
</clipPath>
</defs>
</svg>
