<svg width="18" height="18" viewBox="0 0 18 18" fill="none" xmlns="http://www.w3.org/2000/svg">
<g clip-path="url(#clip0_384_10411)">
<path d="M14.0347 8.99997H10.5C10.1022 8.99997 9.72064 8.84194 9.43933 8.56063C9.15803 8.27933 8.99999 7.8978 8.99999 7.49997V3.95547C9.00101 3.61046 8.92268 3.26983 8.77104 2.95993C8.6194 2.65002 8.39853 2.37914 8.12549 2.16822C7.86677 1.96333 7.56441 1.82065 7.24177 1.75121C6.91913 1.68177 6.58485 1.68742 6.26474 1.76772C4.44648 2.21908 2.83674 3.27752 1.70172 4.76799C0.566703 6.25847 -0.025601 8.0917 0.0227631 9.96452C0.0711272 11.8373 0.757262 13.6376 1.9677 15.0675C3.17813 16.4974 4.84036 17.4713 6.67949 17.8282C8.74732 18.224 10.8882 17.8143 12.6638 16.6829C14.4393 15.5516 15.7152 13.7842 16.23 11.7427C16.3106 11.4222 16.3165 11.0874 16.2472 10.7643C16.1778 10.4411 16.0352 10.1382 15.8302 9.87897C15.6168 9.60631 15.3444 9.38557 15.0334 9.23333C14.7224 9.08108 14.381 9.0013 14.0347 8.99997ZM14.7757 11.376C14.4886 12.5324 13.8994 13.5917 13.0685 14.4457C12.2376 15.2997 11.1947 15.9177 10.0466 16.2364C8.89853 16.5551 7.68638 16.5632 6.53414 16.2597C5.38191 15.9563 4.33096 15.3522 3.48877 14.5093C2.64659 13.6665 2.0434 12.615 1.74091 11.4625C1.43841 10.31 1.44747 9.09789 1.76714 7.95005C2.08682 6.80222 2.70564 5.75989 3.56032 4.92968C4.415 4.09947 5.47486 3.51118 6.63149 3.22497C6.73044 3.20025 6.83381 3.19904 6.93331 3.22144C7.03281 3.24384 7.12568 3.28923 7.20449 3.35397C7.29756 3.42493 7.37303 3.51637 7.42506 3.6212C7.47709 3.72603 7.50427 3.84144 7.50449 3.95847V7.49997C7.50449 8.29562 7.82056 9.05868 8.38317 9.62129C8.94578 10.1839 9.70884 10.5 10.5045 10.5H14.0385C14.1565 10.5005 14.273 10.5277 14.379 10.5797C14.485 10.6316 14.5778 10.707 14.6505 10.8C14.7142 10.8799 14.7587 10.9735 14.7803 11.0734C14.8019 11.1733 14.8008 11.2769 14.7757 11.376Z" fill="#191D27"/>
<path d="M17.7383 5.58448C17.393 4.31509 16.7222 3.15786 15.7923 2.22732C14.8624 1.29677 13.7057 0.625176 12.4365 0.278982C12.3035 0.243214 12.1663 0.225059 12.0285 0.224982C11.8304 0.223099 11.6338 0.260508 11.4501 0.335047C11.2665 0.409585 11.0994 0.519776 10.9586 0.659252C10.8178 0.798728 10.7061 0.964723 10.6298 1.14765C10.5535 1.33057 10.5143 1.52679 10.5143 1.72498V5.24998C10.5143 5.84672 10.7513 6.41902 11.1733 6.84097C11.5952 7.26293 12.1675 7.49998 12.7643 7.49998H16.3035C16.535 7.49776 16.7629 7.44219 16.9694 7.33759C17.176 7.233 17.3556 7.08219 17.4944 6.8969C17.6332 6.7116 17.7274 6.4968 17.7697 6.26919C17.812 6.04157 17.8012 5.80727 17.7383 5.58448ZM15.8648 5.99998H12.7613C12.5624 5.99998 12.3716 5.92097 12.231 5.78031C12.0903 5.63966 12.0113 5.44889 12.0113 5.24998L12.0053 1.73023C12.0108 1.72626 12.0173 1.72392 12.024 1.72348H12.0435C13.0651 2.0018 13.9958 2.54317 14.7428 3.29356C15.4898 4.04396 16.0269 4.97715 16.3005 5.99998H15.8648Z" fill="#191D27"/>
</g>
<defs>
<clipPath id="clip0_384_10411">
<rect width="18" height="18" fill="white"/>
</clipPath>
</defs>
</svg>
