<svg width="18" height="18" viewBox="0 0 18 18" fill="none" xmlns="http://www.w3.org/2000/svg">
<g clip-path="url(#clip0_384_10418)">
<path d="M17.1915 1.27494C16.9389 1.06324 16.6427 0.90991 16.3241 0.825899C16.0054 0.741888 15.6721 0.729269 15.348 0.788942L10.713 1.63119C10.0497 1.75078 9.44621 2.0906 9 2.59569C8.55413 2.08977 7.95056 1.74913 7.287 1.62894L2.652 0.786692C2.32783 0.727825 1.99468 0.740872 1.6761 0.82491C1.35753 0.908947 1.06129 1.06192 0.808336 1.27303C0.555379 1.48414 0.351872 1.74823 0.212195 2.04663C0.0725179 2.34503 8.00589e-05 2.67047 0 2.99994L0 15.6254L9 17.2627L18 15.6254V2.99994C18 2.67071 17.9276 2.3455 17.7879 2.04739C17.6482 1.74927 17.4446 1.48555 17.1915 1.27494ZM8.25 15.5999L1.5 14.3744V2.99994C1.50009 2.89013 1.5243 2.78169 1.5709 2.68226C1.61751 2.58283 1.68538 2.49485 1.76972 2.42453C1.85406 2.35421 1.95281 2.30327 2.059 2.27531C2.16518 2.24734 2.27622 2.24304 2.38425 2.26269L7.0185 3.10494C7.36412 3.16782 7.6767 3.35001 7.90176 3.61975C8.12681 3.88948 8.25005 4.22965 8.25 4.58094V15.5999ZM16.5 14.3729L9.75 15.5999V4.58094C9.74995 4.22965 9.87319 3.88948 10.0982 3.61975C10.3233 3.35001 10.6359 3.16782 10.9815 3.10494L15.6157 2.26269C15.7238 2.24304 15.8348 2.24734 15.941 2.27531C16.0472 2.30327 16.1459 2.35421 16.2303 2.42453C16.3146 2.49485 16.3825 2.58283 16.4291 2.68226C16.4757 2.78169 16.4999 2.89013 16.5 2.99994V14.3729Z" fill="#191D27"/>
</g>
<defs>
<clipPath id="clip0_384_10418">
<rect width="18" height="18" fill="white"/>
</clipPath>
</defs>
</svg>
