<svg width="18" height="18" viewBox="0 0 18 18" fill="none" xmlns="http://www.w3.org/2000/svg">
<g clip-path="url(#clip0_384_10407)">
<path d="M17.1368 5.75997L16.485 5.24997H16.5007V1.49997H15.0007V4.08822L10.3868 0.477724C9.57075 -0.161276 8.43 -0.161276 7.614 0.477724L0.86325 5.75997C0.315 6.18897 0 6.83547 0 7.53222V18H6.75V11.25C6.75 10.8367 7.086 10.5 7.5 10.5H10.5C10.914 10.5 11.25 10.8367 11.25 11.25V18H18V7.53222C18 6.83547 17.685 6.18897 17.1368 5.75997ZM16.5 16.5H12.75V11.25C12.75 10.0095 11.7405 8.99997 10.5 8.99997H7.5C6.2595 8.99997 5.25 10.0095 5.25 11.25V16.5H1.5V7.53222C1.5 7.29972 1.605 7.08447 1.788 6.94122L8.538 1.65897C8.81025 1.44597 9.18975 1.44597 9.462 1.65897L16.212 6.94122C16.395 7.08447 16.5 7.29972 16.5 7.53222V16.5Z" fill="#191D27"/>
</g>
<defs>
<clipPath id="clip0_384_10407">
<rect width="18" height="18" fill="white"/>
</clipPath>
</defs>
</svg>
