<svg width="16" height="16" viewBox="0 0 16 16" fill="none" xmlns="http://www.w3.org/2000/svg">
<path d="M8.73336 13C8.53552 13.0001 8.34209 12.9415 8.17756 12.8316C8.01302 12.7218 7.88478 12.5656 7.80906 12.3828C7.73333 12.2 7.71353 11.9988 7.75215 11.8048C7.79077 11.6108 7.88609 11.4325 8.02603 11.2927L11.0834 8.23602C11.1144 8.20506 11.139 8.16828 11.1558 8.12778C11.1726 8.08728 11.1813 8.04387 11.1813 8.00002C11.1813 7.95618 11.1726 7.91277 11.1558 7.87227C11.139 7.83177 11.1144 7.79499 11.0834 7.76402L8.0287 4.70736C7.8411 4.51985 7.73567 4.2655 7.73561 4.00026C7.73555 3.73502 7.84086 3.48062 8.02836 3.29302C8.21587 3.10543 8.47022 3 8.73546 2.99994C9.0007 2.99988 9.2551 3.10518 9.4427 3.29269L12.5 6.35002C12.9369 6.78805 13.1822 7.38141 13.1822 8.00002C13.1822 8.61863 12.9369 9.212 12.5 9.65002L9.4427 12.7074C9.34955 12.8004 9.23895 12.8742 9.11722 12.9244C8.99549 12.9747 8.86504 13.0003 8.73336 13Z" fill="white"/>
<path d="M4.06662 13C3.86877 13.0001 3.67534 12.9415 3.51081 12.8316C3.34628 12.7218 3.21803 12.5656 3.14231 12.3828C3.06658 12.2 3.04678 11.9988 3.0854 11.8048C3.12402 11.6108 3.21934 11.4325 3.35928 11.2927L6.65462 8.00002L3.36195 4.70736C3.17435 4.51985 3.06893 4.2655 3.06886 4.00026C3.0688 3.73502 3.17411 3.48062 3.36162 3.29302C3.54912 3.10543 3.80347 3 4.06871 2.99994C4.33395 2.99988 4.58835 3.10518 4.77595 3.29269L8.77595 7.29269C8.86888 7.38556 8.94259 7.49582 8.99289 7.61719C9.04318 7.73856 9.06907 7.86865 9.06907 8.00002C9.06907 8.1314 9.04318 8.26149 8.99289 8.38286C8.94259 8.50422 8.86888 8.61449 8.77595 8.70736L4.77595 12.7074C4.68281 12.8004 4.5722 12.8742 4.45047 12.9244C4.32874 12.9747 4.1983 13.0003 4.06662 13Z" fill="white"/>
</svg>
