<svg width="17" height="17" viewBox="0 0 17 17" fill="none" xmlns="http://www.w3.org/2000/svg">
<g clip-path="url(#clip0_384_10388)">
<path d="M13.4583 0H3.54167C1.58879 0 0 1.58879 0 3.54167V13.4583C0 15.4112 1.58879 17 3.54167 17H13.4583C15.4112 17 17 15.4112 17 13.4583V3.54167C17 1.58879 15.4112 0 13.4583 0ZM15.5833 13.4583C15.5833 14.6299 14.6299 15.5833 13.4583 15.5833H3.54167C2.37008 15.5833 1.41667 14.6299 1.41667 13.4583V3.54167C1.41667 3.29233 1.46767 3.05575 1.547 2.83333H15.453C15.5323 3.05575 15.5833 3.29233 15.5833 3.54167V13.4583ZM2.83333 5.66667C2.83333 5.27567 3.14996 4.95833 3.54167 4.95833H5.66667C6.05837 4.95833 6.375 5.27567 6.375 5.66667C6.375 6.05767 6.05837 6.375 5.66667 6.375H3.54167C3.14996 6.375 2.83333 6.05767 2.83333 5.66667ZM9.91667 9.20833C9.91667 9.60004 9.60004 9.91667 9.20833 9.91667H4.95833C4.56663 9.91667 4.25 9.60004 4.25 9.20833C4.25 8.81662 4.56663 8.5 4.95833 8.5H9.20833C9.60004 8.5 9.91667 8.81733 9.91667 9.20833ZM9.91667 12.75C9.91667 13.1417 9.60004 13.4583 9.20833 13.4583H3.54167C3.14996 13.4583 2.83333 13.1417 2.83333 12.75C2.83333 12.3583 3.14996 12.0417 3.54167 12.0417H9.20833C9.60004 12.0417 9.91667 12.3583 9.91667 12.75ZM14.1667 12.75C14.1667 13.5327 13.5327 14.1667 12.75 14.1667C11.9673 14.1667 11.3333 13.5327 11.3333 12.75C11.3333 12.2273 11.6202 11.7753 12.0417 11.5295V7.08333C12.0417 6.69304 11.7243 6.375 11.3333 6.375H10.4288C10.1837 6.79646 9.73179 7.08333 9.20833 7.08333C8.42562 7.08333 7.79167 6.44937 7.79167 5.66667C7.79167 4.88396 8.42562 4.25 9.20833 4.25C9.73108 4.25 10.183 4.53687 10.4288 4.95833H11.3333C12.5049 4.95833 13.4583 5.91175 13.4583 7.08333V11.5295C13.8798 11.7746 14.1667 12.2265 14.1667 12.75Z" fill="#CDCDCD"/>
</g>
<defs>
<clipPath id="clip0_384_10388">
<rect width="17" height="17" fill="white"/>
</clipPath>
</defs>
</svg>
