<svg width="24" height="24" viewBox="0 0 24 24" fill="none" xmlns="http://www.w3.org/2000/svg">
<g clip-path="url(#clip0_309_14948)">
<mask id="mask0_309_14948" style="mask-type:luminance" maskUnits="userSpaceOnUse" x="0" y="0" width="24" height="24">
<path d="M0 24H24V0H0V24Z" fill="white"/>
</mask>
<g mask="url(#mask0_309_14948)">
<path fill-rule="evenodd" clip-rule="evenodd" d="M23.7071 18.7071C24.0976 18.3166 24.0976 17.6834 23.7071 17.2929L14.2071 7.7929C13.8166 7.4024 13.1834 7.4024 12.7929 7.7929L8.5 12.0858L1.70711 5.2929C1.31658 4.9024 0.683417 4.9024 0.292893 5.2929C-0.097631 5.6834 -0.097631 6.3166 0.292893 6.7071L7.79289 14.2071C8.18342 14.5976 8.81658 14.5976 9.20711 14.2071L13.5 9.9142L22.2929 18.7071C22.6834 19.0976 23.3166 19.0976 23.7071 18.7071Z" fill="#FF3B30"/>
<path fill-rule="evenodd" clip-rule="evenodd" d="M16 18C16 18.5523 16.4477 19 17 19H23C23.5523 19 24 18.5523 24 18V12C24 11.4477 23.5523 11 23 11C22.4477 11 22 11.4477 22 12V17H17C16.4477 17 16 17.4477 16 18Z" fill="#FF3B30"/>
</g>
</g>
<defs>
<clipPath id="clip0_309_14948">
<rect width="24" height="24" fill="white" transform="matrix(1 0 0 -1 0 24)"/>
</clipPath>
</defs>
</svg>
