<svg width="14" height="14" viewBox="0 0 14 14" fill="none" xmlns="http://www.w3.org/2000/svg">
<path fill-rule="evenodd" clip-rule="evenodd" d="M7.00005 3.43591C6.47376 3.43591 5.99692 3.51636 5.56827 3.64495C5.33682 3.71439 5.09294 3.58307 5.0235 3.35163C4.95406 3.12019 5.08541 2.87629 5.31683 2.80686C5.82153 2.65546 6.383 2.56091 7.00005 2.56091C9.8164 2.56091 12.1042 4.82406 12.1042 7.62424C12.1042 10.4244 9.8164 12.6876 7.00005 12.6876C4.18367 12.6876 1.89587 10.4244 1.89587 7.62424C1.89587 6.58281 2.21553 5.61146 2.75817 4.80709C2.8933 4.60678 3.16522 4.55393 3.36553 4.68907C3.56582 4.8242 3.61867 5.09612 3.48355 5.29642C3.03453 5.96202 2.77087 6.76404 2.77087 7.62424C2.77087 9.93406 4.65974 11.8126 7.00005 11.8126C9.34033 11.8126 11.2292 9.93406 11.2292 7.62424C11.2292 5.31445 9.34033 3.43591 7.00005 3.43591Z" fill="#453C79"/>
<path fill-rule="evenodd" clip-rule="evenodd" d="M6.50899 1.38301C6.71167 1.5145 6.76942 1.78542 6.63792 1.98813L5.89687 3.13063L7.05019 3.87301C7.25336 4.00377 7.31202 4.2745 7.18126 4.47767C7.05047 4.68085 6.77974 4.73954 6.5766 4.60875L5.0541 3.62875C4.95631 3.56582 4.88761 3.46652 4.86318 3.35282C4.83871 3.23912 4.86055 3.12037 4.92383 3.0228L5.90383 1.51197C6.03533 1.30925 6.30626 1.25152 6.50899 1.38301Z" fill="#453C79"/>
</svg>
