<svg width="9" height="9" viewBox="0 0 9 9" fill="none" xmlns="http://www.w3.org/2000/svg">
<path fill-rule="evenodd" clip-rule="evenodd" d="M0.188289 0.188289C0.43934 -0.0627628 0.846375 -0.0627628 1.09743 0.188289L4.5 3.59086L7.90257 0.188289C8.15363 -0.0627628 8.56066 -0.0627628 8.81171 0.188289C9.06276 0.43934 9.06276 0.846375 8.81171 1.09743L5.40914 4.5L8.81171 7.90257C9.06276 8.15363 9.06276 8.56066 8.81171 8.81171C8.56066 9.06276 8.15363 9.06276 7.90257 8.81171L4.5 5.40914L1.09743 8.81171C0.846375 9.06276 0.43934 9.06276 0.188289 8.81171C-0.0627628 8.56066 -0.0627628 8.15363 0.188289 7.90257L3.59086 4.5L0.188289 1.09743C-0.0627628 0.846375 -0.0627628 0.43934 0.188289 0.188289Z" fill="#898282"/>
</svg>
