<svg width="17" height="18" viewBox="0 0 17 18" fill="none" xmlns="http://www.w3.org/2000/svg">
<path d="M15.2656 10.8562C15.1247 10.8562 14.9895 10.9155 14.8899 11.021C14.7903 11.1264 14.7343 11.2695 14.7343 11.4187V13.3396C14.7343 13.7924 14.5644 14.2266 14.2621 14.5468C13.9597 14.867 13.5496 15.0468 13.122 15.0468H3.87821C3.45059 15.0468 3.04049 14.867 2.73811 14.5468C2.43574 14.2266 2.26587 13.7924 2.26587 13.3396V11.4187C2.26587 11.2695 2.2099 11.1264 2.11027 11.021C2.01064 10.9155 1.87552 10.8562 1.73462 10.8562C1.59372 10.8562 1.4586 10.9155 1.35897 11.021C1.25934 11.1264 1.20337 11.2695 1.20337 11.4187V13.3396C1.20407 14.0906 1.48611 14.8105 1.98759 15.3415C2.48907 15.8725 3.16902 16.1711 3.87821 16.1718H13.122C13.8312 16.1711 14.5111 15.8725 15.0126 15.3415C15.5141 14.8105 15.7961 14.0906 15.7968 13.3396V11.4187C15.7968 11.2695 15.7408 11.1264 15.6412 11.021C15.5416 10.9155 15.4065 10.8562 15.2656 10.8562Z" fill="#343741"/>
<path d="M5.84372 5.99066L7.96872 3.74066V12.0938C7.96872 12.243 8.02469 12.386 8.12432 12.4915C8.22395 12.597 8.35907 12.6563 8.49997 12.6563C8.64087 12.6563 8.77599 12.597 8.87562 12.4915C8.97525 12.386 9.03122 12.243 9.03122 12.0938V3.74909L11.1562 5.99909C11.2056 6.05136 11.2642 6.09281 11.3287 6.1211C11.3932 6.14938 11.4623 6.16394 11.5321 6.16394C11.6019 6.16394 11.671 6.14938 11.7355 6.1211C11.8 6.09281 11.8586 6.05136 11.9079 5.99909C11.9573 5.94683 11.9965 5.88479 12.0232 5.8165C12.0499 5.74822 12.0636 5.67504 12.0636 5.60113C12.0636 5.52722 12.0499 5.45403 12.0232 5.38575C11.9965 5.31746 11.9573 5.25542 11.9079 5.20316L8.87716 1.9941C8.80332 1.91825 8.71157 1.86482 8.61153 1.83941C8.52555 1.82265 8.43703 1.82795 8.35338 1.85486C8.26973 1.88178 8.19339 1.92952 8.13075 1.9941L5.09997 5.19472C5.01563 5.30218 4.97208 5.43902 4.97779 5.57861C4.98351 5.7182 5.03809 5.85054 5.1309 5.94986C5.22371 6.04919 5.34811 6.10838 5.47987 6.11592C5.61164 6.12346 5.74134 6.07881 5.84372 5.99066Z" fill="#343741"/>
</svg>
